/* XPM */
static char * anduril_rest_xpm[] = {
"32 32 6 1",
" 	c None",
".	c #000000",
"+	c #909090",
"@	c #2E2E2E",
"#	c #6B6B6B",
"$	c #C1BA00",
"                                ",
"              .                 ",
"             .+.                ",
"            .+++.               ",
"            .+@+.               ",
"            .+@+.               ",
"            .+++.               ",
"            .+++.               ",
"            .+@+.               ",
"            .+@+.               ",
"            .+++.               ",
"            .+++.               ",
"            .+++.               ",
"            .+@+.               ",
"            .+@+.               ",
"            .+@+.               ",
"            .+++.               ",
"            .+++.               ",
"            .+@+.               ",
"            .@#@.               ",
"       .....#####.....          ",
"       .$###########$.          ",
"       ...............          ",
"             ...                ",
"             ...                ",
"             ...                ",
"             .#.                ",
"             .#.                ",
"             .#.                ",
"             .$.                ",
"             ...                ",
"                                "};
