/* XPM */
static char * Untitled_xpm[] = {
"32 32 7 1",
" 	c None",
".	c #BEBEBE",
"+	c #000000",
"@	c #909090",
"#	c #2E2E2E",
"$	c #C1BA00",
"%	c #6B6B6B",
"                                ",
"              ...........   ++++",
"           ....            +@@@+",
"         ...              +@@@@+",
"       ..                +@@@@@+",
"     ..        .....    +@@#@@+ ",
"    .        ...       +@@#@@+  ",
"   .       ..         +@@@@@+   ",
"   .     ..          +@@@@@+    ",
"        .           +@@#@@+     ",
"        .          +@@#@@+      ",
"       .   .....  +@@@@@+       ",
"           .     +@@@@@+        ",
"          .     +@@@@@+         ",
"     +++       +@@#@@+          ",
"     +$+      +@@#@@+           ",
"     ++%+    +@@#@@+            ",
"       +%+  +@@@@@+             ",
"        +%++@##@@+              ",
"         +%%%%#@+               ",
"          +%%%@+                ",
"          +%%%+                 ",
"         ++++%+                 ",
"        +++  +%+                ",
"       +++    +%+               ",
"      +++      +%++             ",
"     +%+        +$+             ",
"    +%+         +++             ",
"  ++%+                          ",
"  +$+                           ",
"  +++                           ",
"                                "};
