/* XPM */
static char *_b27ea8e6dfc45229de85f30ad1452bbbi2xo3V8kG2CIa5T[] = {
/* columns rows colors chars-per-pixel */
"64 64 21 1 ",
"  c #16051F",
". c #140820",
"X c #2A1E3F",
"o c #313131",
"O c #353535",
"+ c #353B4B",
"@ c gray25",
"# c gray29",
"$ c gray32",
"% c gray34",
"& c #795548",
"* c #8D6E63",
"= c #FFD54F",
"- c #615494",
"; c #777C93",
": c #D69FAC",
"> c #FFE082",
", c #FFECB3",
"< c #AAA7C4",
"1 c #C1BDC6",
"2 c #FFF9C4",
/* pixels */
"%%%%%%oO#####oo#oOO@@@@oo@@@@@oo%@@@o@@@OoO@@o@@@@@oo%@@@o@@@OoO",
"@@@@@@%oO####o%##ooOOOOo@@@@@@o%@@@@oO@OoO@@%@@@@@@o%@@@@oO@OoO@",
"OO@@@@@%oO###o###%%ooooo@@@@@Oo%@@@@ooOoOOO@%@@@@@Oo%@@@@ooOoOOO",
"ooO@@@@@oOOOOo#####%o@@@@@@@Ooo%@@@@ooo@oooOO@@@@Ooo%@@@@ooo@ooo",
"%ooO@@@@ooooooo#####oO@@@OOOoo%*@@@Oo%oo%%%oo@OOOoo%@@@@Oo%oo%%%",
"@%ooOOOOo%%%%%o#####ooOOOoooo%@&OOOoo#%o###%oOoooo%@@OOOoo@%o@@@",
"@@%oooooooO@@%oO#####Oooo%%%oO***oo%%##o####%o%%%oOOOooo%%@@o@@@",
"@@@o%%%%%%oO@@%oOO##Oo%%%@@%oo&&&%%####o#####%##%ooooo%%@@@@o@@@",
"@@@o%#####%oO@@%ooOOoo@@@@@@%%,,,%#####ooo#######%%%%o%@@@@@ooo@",
"@@@oo%#####%o@@@%ooo%oo@@@@@@2,>,>####Oo%%o#########Oo@@@@@Oo%%o",
"@@@oo%######o@@@o%%%$%oOO@@@@>=2,>###Ooo%@%o#O#####Ooo@@@@Ooo%@%",
"O@@o%oO####oo@@@o$$$$$$ooOOOOO>>=###Ooo%@@@%ooOOOOOoo@@@@Ooo%@@@",
"oOOo%oo####o%oooooO$$$$$ooooooo####Ooo%@@@Oo%ooooooo@@@@Ooo%@@@O",
"ooo%@%o####o@%%%%ooOO$$OOooo%ooOOOOoo%@@@Oo%@Oooo%ooOOOOoo%@@@Oo",
"oo%@@@o###OoO@@@@%oooOOoooo%@%oooooo%@@@Oo%@@ooo%#%oooooo%@@@Oo%",
"o%@@@@oO#OoO@@@---------------------------------####oo@@@@@@Oo%@",
"o%@@@@ooOoOOO@@-;11111111111111111111111111111;-#####oo@@@@@o@@@",
"o%@@@@ooo@oooOO-<;;;;;;;;;;;;;;;;;;;;;;;;;;;;;<-o#####%o@@@@@@@O",
"%@@@@Oo%oo%%%oo-<;;<<<<<<<<<<<<<<<<<<<<<<<<<;;<-oo#####oO@@@OOOo",
"@@OOOoo#%o@@@%o-<;;<+++++++++++++++++++++++<;;<-%o#####ooOOOoooo",
"OOooo%%##o@@@@%-<;;<.                      <;;<-%oO#####Oooo%%%o",
"ooo%%####o@@@@@-<;;< X+++++++++++++++++++X <;;<-@%oOO##Oo%%%##%o",
"%%o%#####ooo@@@-<;;< X++++++++++++++++++++ <;;<-@@%ooOOoo######%",
"@Oo#####Oo%%o@@-<;;< X+++....++++++...++++ <;;<-@@@%ooo%oo######",
"Ooo####Ooo%@%o@-<;;<.X++.;;;+ ;+++ ;;;.;++ <;;<-@@@o%%%@%oOO####",
"oo####Ooo%@@@%o-<;;<.X++.;+++ ;+++ ;++.;++ <;;<-@@@o@@@@@@ooOOOO",
"o####Ooo%@@@Oo%-<;;<.X++.;+++ ;+++ ;++ ;++ <;;<-oooooO@@@@@ooooo",
"oOOOOoo%@@@Oo%@-<;;<.X++.;+++ ;+++ ;++.;++ <;;<-%%%%ooOO@@OOooo%",
"oooooo%@@@Oo%@@-<;;<.X++.;+++ ;+++ ;++.;++ <;;<-@@@@%oooOOoooo%@",
"@oo@@@@@@Oo%@@@-<;;<.X++.;+++ ;+++ ;++ ;++ <;;<-@@@@@%%oooo@@o@@",
"@@oo@@@@@o@@@@@-<;;<.X++.;+++ ;+++ ;++.;++ <;;<-@@@o@@@@@@@@@o@@",
"ooooooO@@@@@@@@-<;;<.X++.;+++ ;+++ ;++.;++ <;;<-@@@@@OoOOOO@@@Oo",
"%%%%%%oO@@@@@@@-<;;<.X++.;+++ ;+++ ;++.;++ <;;<-@@@@OooooooOOOoo",
"######%oO@@@@@@-<;;<.X++.;+++ ;+++ ;++.;++ <;;<-@@@@Oo%%%%%oooo%",
"OO#####%oO@@@OO-<;;<.X++.;+++ ;+++ ;++.;++ <;;<-OOOOo%@@@@@%%OoO",
"ooO#####oOOOOoo-<;;<.X++.;+++ ;+++ ;++ ;++ <;;<-oooooOOOO@@@Oooo",
"%ooO####oooooo%-<;;<.X++.;+++ ;+++ ;++ ;++ <;;<-%%%OoooooO@Ooo%%",
"#%ooOOOOo%%%%%@-<;;<.X++.;+++ ;+++ ;++ ;++ <;;<-@@Oooo%%ooOo%%@@",
"##%oooooooO@@@@-<;;<.X>:.;+++ ;+++ ;++ ;++ <;;<-@Ooo%%##%oo%@@@@",
"###o%%%%%%oO@@@-<;;<.+<- ;+++.;+++ ;++ ;++ <;;<-Ooo%#####%oo@@@@",
"###o%#####%oO@@-<;;<.+-X.;+++.;+++ ;++ ;++ <;;<-oo%#######%oOOO@",
"###oo%#####%oOO-<;;<.++++     ;+++     ;++ <;;<-%o%########ooooO",
"###oo%######ooo-<;;<.+:>+;;;;;++++;;;;;+++ <;;<-%oo########o%%oo",
"O##o%oO####oo%@-<;;<.+<<++++++++++++++++++ <;;<-%Ooo#######o##%%",
"oOOo%oo####o%@@-<;;<.+<-++++++++++++++++++ <;;<-%o%o#######o###%",
"ooo%#%o####o@@@-<;;<.+<-++++++++++++++++++ <;;<-Oo#o######Oo####",
"oo%###o###OoO@@-<;;<.+<-+    +++++    ++++ <;;<-oo#oOO####oo####",
"o%####oO#OoO@@%-<;;< +<- ;;;; ;++ ;;;; ;++ <;;<-o%##ooOOOOo#####",
"o%####ooOoOOO@%-<;;< +-- ;+++ ;++ ;+++ ;++ <;;<-o###%%ooooo#####",
"o%####ooo@oooOO-<;;<.+XX ;+++ ;++ ;+++ ;++ <;;<-o#####%o#######O",
"%####Oo%oo%%%oo-<;;<.X++.;+++ ;++ ;+++ ;++ <;;<-oo#####oO###OOOo",
"##OOOoo@%o@@@%o-<;;<.X++ ;+++ ;++ ;+++ ;++ <;;<-%o#####ooOOOoooo",
"OOooo%%@@o@@@@%-<;;<.X++ ;+++ ;++ ;+++ ;++ <;;<-%oO#####Oooo%%%o",
"ooo%%@@@@o@@@@@-<;;<.X++ ;+++ ;++ ;+++ ;++ <;;<-@%oOO##Oo%%%@@%o",
"%%o%@@@@@ooo@@@-<;;<.X++ ;+++ ;++ ;+++ ;++ <;;<-@@%ooOOoo@@@@@@%",
"@Oo@@@@@Oo%%o@@-<;;<.X++ ;+++ ;++ ;+++ ;++ <;;<-@@@%ooo%oo@@@@@@",
"Ooo@@@@Ooo%@%o@-<;;<.X++ ;+++ ;++ ;+++ ;++ <;;<-@@@o%%%@%oOO@@@@",
"oo@@@@Ooo%@@@%o-<;;< X+++     ;+++     ;++ <;;<-@@@o@@@@@@ooOOOO",
"o@@@@Ooo%@@@Oo%-<;;< X+++;;;;;++++;;;;;+++ <;;<-oooooO@@@@@ooooo",
"oOOOOoo%@@@Oo%@-<;;< X++++++++++++++++++++ <;;<-%%%%ooOO@@OOooo%",
"oooooo%@@@Oo%@@-<;;< X++++++++++++++++++++ <;;<-@@@@%oooOOoooo%@",
"@oo@@@@@@Oo%@@@-;11; X++++++++++++++++++++ ;11;-@@@@@%%oooo@@o@@",
"@@oo@@@@@o@@@@@--<<- XXXXXXXXXXXXXXXXXXXXX -<<--@@@o@@@@@@@@@o@@",
"ooooooooooooo                                   ..oooooooooooooo"
};
