/* XPM */
static char *_5dadc0f118a4031c46c85dab8ec237dpgNkVlvV7vBjCl0B[] = {
/* columns rows colors chars-per-pixel */
"64 64 31 1 ",
"  c black",
". c #16051F",
"X c #140820",
"o c #313131",
"O c #353535",
"+ c #3E325C",
"@ c gray25",
"# c gray29",
"$ c gray32",
"% c gray34",
"& c #795548",
"* c #756B75",
"= c #8D6E63",
"- c #FFEB3B",
"; c #FFD54F",
": c #5B4A82",
"> c #615494",
", c #706685",
"< c #777C93",
"1 c #7A51ED",
"2 c #7782B5",
"3 c gray56",
"4 c gray62",
"5 c tan",
"6 c #FFE082",
"7 c #FFECB3",
"8 c #AAA7C4",
"9 c #ABBACC",
"0 c #C1BDC6",
"q c SkyBlue",
"w c #FFF9C4",
/* pixels */
"   qqqqqqqqqqqqqqqqqqqqqqqqqqqqqqqqqqqqqqqqqqqqqqqqqqqqqqqqqq   ",
"22 qqqqqqqqqqqqqqqqqqqqqqqqqqqqqqqqqqqqqqqqqqqqqqqqqqqqqqqqqq 22",
"22 @@@@%oO###o###%%ooooo@@@@@Oo%@@@@ooOoOOO@%@@@@@Oo%@@@@ooOo 22",
"22 @@@@@oOOOOo#####%o@@@@@@@Ooo%@@@@ooo@oooOO@@@@Ooo%@@@@ooo@ 22",
"*  O@@@@ooooooo#####oO@@@OOOoo%=@@@Oo%oo%%%oo@OOOoo%@@@@Oo%oo  *",
"4 ooOOOOo%%%%%o#####ooOOOoooo%@&OOOoo#%o###%oOoooo%@@OOOoo@%o@ 4",
"* %oooooooO@@%oO#####Oooo%%%oO===oo%%##o####%o%%%oOOOooo%%@@o@ *",
"4 @o%%%%%%oO@@%oOO##Oo%%%@@%oo&&&%%####o#####%##%ooooo%%@@@@o@ 4",
"* @o%#####%oO@@%ooOOoo@@@@@@%%777%#####ooo#######%%%%o%@@@@@oo *",
"4 @oo%#####%o@@@%ooo%oo@@@@@@w7676####Oo%%o#########Oo@@@@@Oo% 4",
"* @oo%######o@@@o%%%$%oOO@@@@6;w76###Ooo%@%o#O#####Ooo@@@@Ooo% *",
"4 @o%oO####oo@@@o$$$$$$ooOOOOO66;###Ooo%@@@%ooOOOOOoo@@@@Ooo%@ 4",
"* Oo%oo####o%oooooO$$$$$ooooooo####Ooo%@@@Oo%ooooooo@@@@Ooo%@@ *",
"4 o%@%o####o@%%%%ooOO$$OOooo%ooOOOOoo%@@@Oo%@Oooo%ooOOOOoo%@@@ 4",
"* %@@@o###OoO@@@@%oooOOoooo%@%oooooo%@@@Oo%@@ooo%#%oooooo%@@@O *",
"4 @@@@oO#OoO@@@>>>>>>>>>>>>>>>>>>>>>>>>>>>>>>>>>####oo@@@@@@Oo 4",
"* @@@@ooOoOOO@@><00000000000000000000000000000<>#####oo@@@@@o@ *",
"4 @@@@ooo@oooOO>8<<<<<<<<<<<<<<<<<<<<<<<<<<<<<8>o#####%o@@@@@@ 4",
"3   @Oo%oo%%%oo>8<<8888888888888888888888888<<8>oo#####oO@@@   3",
"333, oo#%o@@@%o>8<<8555555555555555555555558<<8>%o#####ooOO ,333",
"-3:,, %##o@@@@%>8<<8555555555555555555555558<<8>%oO#####Oo ,,:3-",
"--::,, ##o@@@@@>8<<8555555555555555555555558<<8>@%oOO##Oo ,,::--",
"--: :,, #ooo@@@>8<<8555555555555555555555558<<8>@@%ooOOo ,,: :--",
"-- # :,, o%%o@@>8<<8555555555555555555555558<<8>@@@%ooo ,,: # --",
"- o## :: o%@%o@>8<<8555555555555555555555558<<8>@@@o%%% :: O## -",
"- ####   %@@@%o>8<<8555555555555555555555558<<8>@@@o@@@   ooOO -",
"19 ##Ooo%@@@Oo%>8<<8555555555555555555555558<<8>oooooO@@@@@oo 91",
"+9 OOoo%@@@Oo%@>8<<8555555555555555555555558<<8>%%%%ooOO@@OOo 9+",
"+9 ooo%@@@Oo%@@>8<<8555555555555555555555558<<8>@@@@%oooOOooo 9+",
"19 @@@@@@Oo%@@@>8<<8555555555555555555555558<<8>@@@@@%%oooo@@ 91",
"19 o@@@@@o@@@@@>8<<8555555555555555555555558<<8>@@@o@@@@@@@@@ 91",
"19 oooO@@@@@@@@>8<<8555555555555555555555558<<8>@@@@@OoOOOO@@ 91",
"19 %%%oO@@@@@@@>8<<8555555555555555555555558<<8>@@@@OooooooOO 91",
"19 ###%oO@@@@@@>8<<8555555555555555555555558<<8>@@@@Oo%%%%%oo 91",
"19 ####%oO@@@OO>8<<8555555555555555555555558<<8>OOOOo%@@@@@%% 91",
"19 #####oOOOOoo>8<<8555555555555555555555558<<8>oooooOOOO@@@O 91",
"19 O####oooooo%>8<<8555555555555555555555558<<8>%%%OoooooO@Oo 91",
"19 oOOOOo%%%%%@>8<<8555555555555555555555558<<8>@@Oooo%%ooOo% 91",
"19 oooooooO@@@@>8<<8555555555555555555555558<<8>@Ooo%%##%oo%@ 91",
"19 o%%%%%%oO@@@>8<<8555555555555555555555558<<8>Ooo%#####%oo@ 91",
"19 o%#####%oO@@>8<<8555555555555555555555558<<8>oo%#######%oO 91",
"19 oo%#####%oOO>8<<8555555555555555555555558<<8>%o%########oo 91",
"19 oo%######ooo>8<<8555555555555555555555558<<8>%oo########o% 91",
"19 o%oO####oo%@>8<<8555555555555555555555558<<8>%Ooo#######o# 91",
"19 o%oo####o%@@>8<<8555555555555555555555558<<8>%o%o#######o# 91",
"19 %#%o####o@@@>8<<8555555555555555555555558<<8>Oo#o######Oo# 91",
"19 ###o###OoO@@>8<<8555555555555555555555558<<8>oo#oOO####oo# 91",
"19 ###oO#OoO@@%>8<<8555555555555555555555558<<8>o%##ooOOOOo## 91",
"19 ###ooOoOOO@%>8<<8555555555555555555555558<<8>o###%%ooooo## 91",
"19 ###ooo@oooOO>8<<8555555555555555555555558<<8>o#####%o##### 91",
"19 ##Oo%oo%%%oo>8<<8555555555555555555555558<<8>oo#####oO###O 91",
"19 OOoo@%o@@@%o>8<<8555555555555555555555558<<8>%o#####ooOOOo 91",
"19 oo%%@@o@@@@%>8<<8555555555555555555555558<<8>%oO#####Oooo% 91",
"19 %%@@@@o@@@@@>8<<8555555555555555555555558<<8>@%oOO##Oo%%%@ 91",
"19 %@@@@@ooo@@@>8<<8555555555555555555555558<<8>@@%ooOOoo@@@@ 91",
"19 @@@@@Oo%%o@@>8<<8555555555555555555555558<<8>@@@%ooo%oo@@@ 91",
"19 @@@@Ooo%@%o@>8<<8555555555555555555555558<<8>@@@o%%%@%oOO@ 91",
"19 @@@Ooo%@@@%o>8<<8555555555555555555555558<<8>@@@o@@@@@@ooO 91",
"19 @@Ooo%@@@Oo%>8<<8555555555555555555555558<<8>oooooO@@@@@oo 91",
"9 OOOoo%@@@Oo%@>8<<8555555555555555555555558<<8>%%%%ooOO@@OOoo 9",
" ooooo%@@@Oo%@@>8<<8555555555555555555555558<<8>@@@@%oooOOoooo% ",
"@oo@@@@@@Oo%@@@><00<55555555555555555555555<00<>@@@@@%%oooo@@o@@",
"@@oo@@@@@o@@@@@>>88>55555555555555555555555>88>>@@@o@@@@@@@@@o@@",
"ooooooooooooo...................................XXoooooooooooooo"
};
