/* XPM */
static char *_4137cba01a349a3e04d427a4e3e749bWwyN0GQGS5N2uDL7[] = {
/* columns rows colors chars-per-pixel */
"64 64 35 1 ",
"  c black",
". c #16051F",
"X c #140820",
"o c #313131",
"O c #353535",
"+ c #5D2C28",
"@ c #3E325C",
"# c #37474F",
"$ c gray25",
"% c gray29",
"& c gray32",
"* c gray34",
"= c #795548",
"- c #756B75",
"; c #8A4836",
": c #8D6E63",
"> c #FFEB3B",
", c #E69C69",
"< c #FFD54F",
"1 c #5B4A82",
"2 c #615494",
"3 c #706685",
"4 c #777C93",
"5 c #7A51ED",
"6 c #7782B5",
"7 c gray56",
"8 c gray62",
"9 c tan",
"0 c #FFE082",
"q c #FFECB3",
"w c #AAA7C4",
"e c #ABBACC",
"r c #C1BDC6",
"t c SkyBlue",
"y c #FFF9C4",
/* pixels */
"   tttttttttttttttttttttttttttttttttttttttttttttttttttttttttt   ",
"66 tttttttttttttttttttttttttttttttttttttttttttttttttttttttttt 66",
"66 $$$$*oO%%%o%%%**ooooo$$$$$Oo*$$$$ooOoOOO$*$$$$$Oo*$$$$ooOo 66",
"66 $$$$$oOOOOo%%%%%*o$$$$$$$Ooo*$$$$ooo$oooOO$$$$Ooo*$$$$ooo$ 66",
"-  O$$$$ooooooo%%%%%oO$$$OOOoo*:$$$Oo*oo***oo$OOOoo*$$$$Oo*oo  -",
"8 ooOOOOo*****o%%%%%ooOOOoooo*$=OOOoo%*o%%%*oOoooo*$$OOOoo$*o$ 8",
"- *oooooooO$$*oO%%%%%Oooo***oO:::oo**%%o%%%%*o***oOOOooo**$$o$ -",
"8 $o******oO$$*oOO%%Oo***$$*oo===**%%%%o%%%%%*%%*ooooo**$$$$o$ 8",
"- $o*%%%%%*oO$$*ooOOoo$$$$$$**qqq*%%%%%ooo%%%%%%%****o*$$$$$oo -",
"8 $oo*%%%%%*o$$$*ooo*oo$$$$$$yq0q0%%%%Oo**o%%%%%%%%%Oo$$$$$Oo* 8",
"- $oo*%%%%%%o$$$o***&*oOO$$$$0<yq0%%%Ooo*$*o%O%%%%%Ooo$$$$Ooo* -",
"8 $o*oO%%%%oo$$$o&&&&&&ooOOOOO00<%%%Ooo*$$$*ooOOOOOoo$$$$Ooo*$ 8",
"- Oo*oo%%%%o*oooooO&&&&&ooooooo%%%%Ooo*$$$Oo*ooooooo$$$$Ooo*$$ -",
"8 o*$*o%%%%o$****ooOO&&OOooo*ooOOOOoo*$$$Oo*$Oooo*ooOOOOoo*$$$ 8",
"- *$$$o%%%OoO$$$$*oooOOoooo*$*oooooo*$$$Oo*$$ooo*%*oooooo*$$$O -",
"8 $$$$oO%OoO$$$222222222222222222222222222222222%%%%oo$$$$$$Oo 8",
"- $$$$ooOoOOO$$24rrrrrrrrrrrrrrrrrrrrrrrrrrrrr42%%%%%oo$$$$$o$ -",
"8 $$$$ooo$oooOO2w44444444444444444444444444444w2o%%%%%*o$$$$$$ 8",
"7   $Oo*oo***oo2w44wwwwwwwwwwwwwwwwwwwwwwwww44w2oo%%%%%oO$$$   7",
"7773 oo%*o$$$*o2w44w#######################w44w2*o%%%%%ooOO 3777",
">7133 *%%o$$$$*2w44w#;;;;;;;;;;;;;;;;;;;;;#w44w2*oO%%%%%Oo 3317>",
">>1133 %%o$$$$$2w44w#;;;;;;;;;;;;;;;;;;;;;#w44w2$*oOO%%Oo 3311>>",
">>1 133 %ooo$$$2w44w#;;;;;;;;;;;;;;;;;;;;;#w44w2$$*ooOOo 331 1>>",
">> % 133 o**o$$2w44w#;;;;;;;;;;;;;;;;;;;;;#w44w2$$$*ooo 331 % >>",
"> o%% 11 o*$*o$2w44w#;;;;;;;;;;;;;;;;;;;;;#w44w2$$$o*** 11 O%% >",
"> %%%%   *$$$*o2w44w#;;;;+++++++++++++,;;;#w44w2$$$o$$$   ooOO >",
"5e %%Ooo*$$$Oo*2w44w#;;;;+++++++++++++,;;;#w44w2oooooO$$$$$oo e5",
"@e OOoo*$$$Oo*$2w44w#;;;;++99++999+999,;;;#w44w2****ooOO$$OOo e@",
"@e ooo*$$$Oo*$$2w44w#;;;;++99++999+999,;,,#w44w2$$$$*oooOOooo e@",
"5e $$$$$$Oo*$$$2w44w#;;;;++99++999+999,;++#w44w2$$$$$**oooo$$ e5",
"5e o$$$$$o$$$$$2w44w#;;;;++99++999+999,;++#w44w2$$$o$$$$$$$$$ e5",
"5e oooO$$$$$$$$2w44w#;;;;++99++999+999,;++#w44w2$$$$$OoOOOO$$ e5",
"5e ***oO$$$$$$$2w44w#;;;;++99++999+999,;++#w44w2$$$$OooooooOO e5",
"5e %%%*oO$$$$$$2w44w#;;;;++99++999+999,;++#w44w2$$$$Oo*****oo e5",
"5e %%%%*oO$$$OO2w44w#;;;;++99++999+999,;++#w44w2OOOOo*$$$$$** e5",
"5e %%%%%oOOOOoo2w44w#;;;;++99++999+999,;;;#w44w2oooooOOOO$$$O e5",
"5e O%%%%oooooo*2w44w#;;;;++99++999+999,;;;#w44w2***OoooooO$Oo e5",
"5e oOOOOo*****$2w44w#;;;;++,,,,,,,,,,,,;;;#w44w2$$Oooo**ooOo* e5",
"5e oooooooO$$$$2w44w#;;;;;;;;;;;;;;;;;;;;;#w44w2$Ooo**%%*oo*$ e5",
"5e o******oO$$$2w44w#;;;;;;;;;;;;;;;;;;;;;#w44w2Ooo*%%%%%*oo$ e5",
"5e o*%%%%%*oO$$2w44w#;;;;;;;;;;;;;;;;;;;;;#w44w2oo*%%%%%%%*oO e5",
"5e oo*%%%%%*oOO2w44w#;;;;;;;;;;;;;;;;;;;;;#w44w2*o*%%%%%%%%oo e5",
"5e oo*%%%%%%ooo2w44w#;;;;;;;;;;;;;;;;;;;;;#w44w2*oo%%%%%%%%o* e5",
"5e o*oO%%%%oo*$2w44w#;;;;;;;;;;;;;;;;;;;;;#w44w2*Ooo%%%%%%%o% e5",
"5e o*oo%%%%o*$$2w44w#;;;;;;;;;;;;;;;;;;;;;#w44w2*o*o%%%%%%%o% e5",
"5e *%*o%%%%o$$$2w44w#;;;;+++++++++++++,;;;#w44w2Oo%o%%%%%%Oo% e5",
"5e %%%o%%%OoO$$2w44w#;;;;++99++999+999,;;;#w44w2oo%oOO%%%%oo% e5",
"5e %%%oO%OoO$$*2w44w#;;;;++99++999+999,;,,#w44w2o*%%ooOOOOo%% e5",
"5e %%%ooOoOOO$*2w44w#;;;;++99++999+999,;,,#w44w2o%%%**ooooo%% e5",
"5e %%%ooo$oooOO2w44w#;;;;++99++999+999,;++#w44w2o%%%%%*o%%%%% e5",
"5e %%Oo*oo***oo2w44w#;;;;++99++999+999,;++#w44w2oo%%%%%oO%%%O e5",
"5e OOoo$*o$$$*o2w44w#;;;;++99++999+999,;++#w44w2*o%%%%%ooOOOo e5",
"5e oo**$$o$$$$*2w44w#;;;;++99++999+999,;++#w44w2*oO%%%%%Oooo* e5",
"5e **$$$$o$$$$$2w44w#;;;;++99++999+999,;++#w44w2$*oOO%%Oo***$ e5",
"5e *$$$$$ooo$$$2w44w#;;;;++99++999+999,;;;#w44w2$$*ooOOoo$$$$ e5",
"5e $$$$$Oo**o$$2w44w#;;;;++99++999+999,;;;#w44w2$$$*ooo*oo$$$ e5",
"5e $$$$Ooo*$*o$2w44w#;;;;++99++999+999,;;;#w44w2$$$o***$*oOO$ e5",
"5e $$$Ooo*$$$*o2w44w#;;;;++,,,,,,,,,,,,;;;#w44w2$$$o$$$$$$ooO e5",
"5e $$Ooo*$$$Oo*2w44w#;;;;;;;;;;;;;;;;;;;;;#w44w2oooooO$$$$$oo e5",
"e OOOoo*$$$Oo*$2w44w#;;;;;;;;;;;;;;;;;;;;;#w44w2****ooOO$$OOoo e",
" ooooo*$$$Oo*$$2w44w#;;;;;;;;;;;;;;;;;;;;;#w44w2$$$$*oooOOoooo* ",
"$oo$$$$$$Oo*$$$24rr4#;;;;;;;;;;;;;;;;;;;;;#4rr42$$$$$**oooo$$o$$",
"$$oo$$$$$o$$$$$22ww2#######################2ww22$$$o$$$$$$$$$o$$",
"ooooooooooooo...................................XXoooooooooooooo"
};
