/* XPM */
static char *_db358f4c2c74027bc7c9e12c178c4630pe5DjOBtFylGJ0K[] = {
/* columns rows colors chars-per-pixel */
"64 64 32 1 ",
"  c black",
". c #16051F",
"X c #140820",
"o c #2A1E3F",
"O c #313131",
"+ c #353535",
"@ c #353B4B",
"# c #3E325C",
"$ c gray25",
"% c gray29",
"& c gray32",
"* c gray34",
"= c #795548",
"- c #756B75",
"; c #8D6E63",
": c #FFEB3B",
"> c #FFD54F",
", c #5B4A82",
"< c #615494",
"1 c #706685",
"2 c #777C93",
"3 c #7A51ED",
"4 c #7782B5",
"5 c gray56",
"6 c gray62",
"7 c #D69FAC",
"8 c #FFE082",
"9 c #FFECB3",
"0 c #AAA7C4",
"q c #ABBACC",
"w c #C1BDC6",
"e c #FFF9C4",
/* pixels */
"   ***O+%%%%%OO%O++$$$$OO$$$$$OO*$$$O$$$+O+$$O$$$$$OO*$$$O$$$   ",
"44 $$$*O+%%%%O*%%OO++++O$$$$$$O*$$$$O+$+O+$$*$$$$$$O*$$$$O+$+ 44",
"44 $$$$*O+%%%O%%%**OOOOO$$$$$+O*$$$$OO+O+++$*$$$$$+O*$$$$OO+O 44",
"44 $$$$$O++++O%%%%%*O$$$$$$$+OO*$$$$OOO$OOO++$$$$+OO*$$$$OOO$ 44",
"-  +$$$$OOOOOOO%%%%%O+$$$+++OO*;$$$+O*OO***OO$+++OO*$$$$+O*OO  -",
"6 OO++++O*****O%%%%%OO+++OOOO*$=+++OO%*O%%%*O+OOOO*$$+++OO$*O$ 6",
"- *OOOOOOO+$$*O+%%%%%+OOO***O+;;;OO**%%O%%%%*O***O+++OOO**$$O$ -",
"6 $O******O+$$*O++%%+O***$$*OO===**%%%%O%%%%%*%%*OOOOO**$$$$O$ 6",
"- $O*%%%%%*O+$$*OO++OO$$$$$$**999*%%%%%OOO%%%%%%%****O*$$$$$OO -",
"6 $OO*%%%%%*O$$$*OOO*OO$$$$$$e9898%%%%+O**O%%%%%%%%%+O$$$$$+O* 6",
"- $OO*%%%%%%O$$$O***&*O++$$$$8>e98%%%+OO*$*O%+%%%%%+OO$$$$+OO* -",
"6 $O*O+%%%%OO$$$O&&&&&&OO+++++88>%%%+OO*$$$*OO+++++OO$$$$+OO*$ 6",
"- +O*OO%%%%O*OOOOO+&&&&&OOOOOOO%%%%+OO*$$$+O*OOOOOOO$$$$+OO*$$ -",
"6 O*$*O%%%%O$****OO++&&++OOO*OO++++OO*$$$+O*$+OOO*OO++++OO*$$$ 6",
"- *$$$O%%%+O+$$$$*OOO++OOOO*$*OOOOOO*$$$+O*$$OOO*%*OOOOOO*$$$+ -",
"6 $$$$O+%+O+$$$<<<<<<<<<<<<<<<<<<<<<<<<<<<<<<<<<%%%%OO$$$$$$+O 6",
"- $$$$OO+O+++$$<2wwwwwwwwwwwwwwwwwwwwwwwwwwwww2<%%%%%OO$$$$$O$ -",
"6 $$$$OOO$OOO++<0222222222222222222222222222220<O%%%%%*O$$$$$$ 6",
"5   $+O*OO***OO<0220000000000000000000000000220<OO%%%%%O+$$$   5",
"5551 OO%*O$$$*O<0220@@@@@@@@@@@@@@@@@@@@@@@0220<*O%%%%%OO++ 1555",
":5,11 *%%O$$$$*<0220X......................0220<*O+%%%%%+O 11,5:",
"::,,11 %%O$$$$$<0220.o@@@@@@@@@@@@@@@@@@@o.0220<$*O++%%+O 11,,::",
"::, ,11 %OOO$$$<0220.o@@@@@@@@@@@@@@@@@@@@.0220<$$*OO++O 11, ,::",
":: % ,11 O**O$$<0220.o@@@XXXX@@@@@@XXX@@@@.0220<$$$*OOO 11, % ::",
": O%% ,, O*$*O$<0220Xo@@X222@.2@@@.222X2@@.0220<$$$O*** ,, +%% :",
": %%%%   *$$$*O<0220Xo@@X2@@@.2@@@.2@@X2@@.0220<$$$O$$$   OO++ :",
"3q %%+OO*$$$+O*<0220Xo@@X2@@@.2@@@.2@@.2@@.0220<OOOOO+$$$$$OO q3",
"#q ++OO*$$$+O*$<0220Xo@@X2@@@.2@@@.2@@X2@@.0220<****OO++$$++O q#",
"#q OOO*$$$+O*$$<0220Xo@@X2@@@.2@@@.2@@X2@@.0220<$$$$*OOO++OOO q#",
"3q $$$$$$+O*$$$<0220Xo@@X2@@@.2@@@.2@@.2@@.0220<$$$$$**OOOO$$ q3",
"3q O$$$$$O$$$$$<0220Xo@@X2@@@.2@@@.2@@X2@@.0220<$$$O$$$$$$$$$ q3",
"3q OOO+$$$$$$$$<0220Xo@@X2@@@.2@@@.2@@X2@@.0220<$$$$$+O++++$$ q3",
"3q ***O+$$$$$$$<0220Xo@@X2@@@.2@@@.2@@X2@@.0220<$$$$+OOOOOO++ q3",
"3q %%%*O+$$$$$$<0220Xo@@X2@@@.2@@@.2@@X2@@.0220<$$$$+O*****OO q3",
"3q %%%%*O+$$$++<0220Xo@@X2@@@.2@@@.2@@X2@@.0220<++++O*$$$$$** q3",
"3q %%%%%O++++OO<0220Xo@@X2@@@.2@@@.2@@.2@@.0220<OOOOO++++$$$+ q3",
"3q +%%%%OOOOOO*<0220Xo@@X2@@@.2@@@.2@@.2@@.0220<***+OOOOO+$+O q3",
"3q O++++O*****$<0220Xo@@X2@@@.2@@@.2@@.2@@.0220<$$+OOO**OO+O* q3",
"3q OOOOOOO+$$$$<0220Xo87X2@@@.2@@@.2@@.2@@.0220<$+OO**%%*OO*$ q3",
"3q O******O+$$$<0220X@0<.2@@@X2@@@.2@@.2@@.0220<+OO*%%%%%*OO$ q3",
"3q O*%%%%%*O+$$<0220X@<oX2@@@X2@@@.2@@.2@@.0220<OO*%%%%%%%*O+ q3",
"3q OO*%%%%%*O++<0220X@@@@.....2@@@.....2@@.0220<*O*%%%%%%%%OO q3",
"3q OO*%%%%%%OOO<0220X@78@22222@@@@22222@@@.0220<*OO%%%%%%%%O* q3",
"3q O*O+%%%%OO*$<0220X@00@@@@@@@@@@@@@@@@@@.0220<*+OO%%%%%%%O% q3",
"3q O*OO%%%%O*$$<0220X@0<@@@@@@@@@@@@@@@@@@.0220<*O*O%%%%%%%O% q3",
"3q *%*O%%%%O$$$<0220X@0<@@@@@@@@@@@@@@@@@@.0220<+O%O%%%%%%+O% q3",
"3q %%%O%%%+O+$$<0220X@0<@....@@@@@....@@@@.0220<OO%O++%%%%OO% q3",
"3q %%%O+%+O+$$*<0220.@0<.2222.2@@.2222.2@@.0220<O*%%OO++++O%% q3",
"3q %%%OO+O+++$*<0220.@<<.2@@@.2@@.2@@@.2@@.0220<O%%%**OOOOO%% q3",
"3q %%%OOO$OOO++<0220X@oo.2@@@.2@@.2@@@.2@@.0220<O%%%%%*O%%%%% q3",
"3q %%+O*OO***OO<0220Xo@@X2@@@.2@@.2@@@.2@@.0220<OO%%%%%O+%%%+ q3",
"3q ++OO$*O$$$*O<0220Xo@@.2@@@.2@@.2@@@.2@@.0220<*O%%%%%OO+++O q3",
"3q OO**$$O$$$$*<0220Xo@@.2@@@.2@@.2@@@.2@@.0220<*O+%%%%%+OOO* q3",
"3q **$$$$O$$$$$<0220Xo@@.2@@@.2@@.2@@@.2@@.0220<$*O++%%+O***$ q3",
"3q *$$$$$OOO$$$<0220Xo@@.2@@@.2@@.2@@@.2@@.0220<$$*OO++OO$$$$ q3",
"3q $$$$$+O**O$$<0220Xo@@.2@@@.2@@.2@@@.2@@.0220<$$$*OOO*OO$$$ q3",
"3q $$$$+OO*$*O$<0220Xo@@.2@@@.2@@.2@@@.2@@.0220<$$$O***$*O++$ q3",
"3q $$$+OO*$$$*O<0220.o@@@.....2@@@.....2@@.0220<$$$O$$$$$$OO+ q3",
"3q $$+OO*$$$+O*<0220.o@@@22222@@@@22222@@@.0220<OOOOO+$$$$$OO q3",
"q +++OO*$$$+O*$<0220.o@@@@@@@@@@@@@@@@@@@@.0220<****OO++$$++OO q",
" OOOOO*$$$+O*$$<0220.o@@@@@@@@@@@@@@@@@@@@.0220<$$$$*OOO++OOOO* ",
"$OO$$$$$$+O*$$$<2ww2.o@@@@@@@@@@@@@@@@@@@@.2ww2<$$$$$**OOOO$$O$$",
"$$OO$$$$$O$$$$$<<00<.ooooooooooooooooooooo.<00<<$$$O$$$$$$$$$O$$",
"OOOOOOOOOOOOO...................................XXOOOOOOOOOOOOOO"
};
