/* XPM */
static char *_9082103704241108f0b530aef7dda20lswIhVm9VmlHvnVX[] = {
/* columns rows colors chars-per-pixel */
"64 64 36 1 ",
"  c black",
". c #16051F",
"X c #140820",
"o c #2E222F",
"O c #2C2C2C",
"+ c #313131",
"@ c #353535",
"# c #393939",
"$ c #3E325C",
"% c gray25",
"& c gray29",
"* c gray32",
"= c gray34",
"- c #795548",
"; c #756B75",
": c #8D6E63",
"> c #FFEB3B",
", c #FFD54F",
"< c #574B84",
"1 c #5B4A82",
"2 c #615494",
"3 c #706685",
"4 c #777C93",
"5 c #7A51ED",
"6 c #7782B5",
"7 c gray56",
"8 c gray62",
"9 c tan",
"0 c #FFE082",
"q c #FFECB3",
"w c #AAA7C4",
"e c #ABBACC",
"r c #C1BDC6",
"t c SkyBlue",
"y c #FFF9C4",
"u c white",
/* pixels */
"   tttttttttttttttttttttttttttttttttttttttttttttttttttttttttt   ",
"66 tttttttttttttttttttttttttttttttttttttttttttttttttttttttttt 66",
"66 %%%%=+@&&&+&&&==+++++%%%%%@+=%%%%++@+@@@%=%%%%%@+=%%%%++@+ 66",
"66 %%%%%+@@@@+&&&&&=+%%%%%%%@++=%%%%+++%+++@@%%%%@++=%%%%+++% 66",
";  @%%%%+++++++&&&&&+@%%%@@@++=:%%%@+=++===++%@@@++=%%%%@+=++  ;",
"8 ++@@@@+=====+&&&&&++@@@++++=%-@@@++&=+&&&=+@++++=%%@@@++%=+% 8",
"; =+++++++@%%=+@&&&&&@+++===+@:::++==&&+&&&&=+===+@@@+++==%%+% ;",
"8 %+======+@%%=+@@&&@+===%%=++---==&&&&+&&&&&=&&=+++++==%%%%+% 8",
"; %+=&&&&&=+@%%=++@@++%%%%%%==qqq=&&&&&+++&&&&&&&====+=%%%%%++ ;",
"8 %++=&&&&&=+%%%=+++=++%%%%%%yq0q0&&&&@+==+&&&&&&&&&@+%%%%%@+= 8",
"; %++=&&&&&&+%%%+===*=+@@%%%%0,yq0&&&@++=%=+&@&&&&&@++%%%%@++= ;",
"8 %+=+@&&&&++%%%+******++@@@@@00,&&&@++=%%%=++@@@@@++%%%%@++=% 8",
"; @+=++&&&&+=+++++@*****+++++++&&&&@++=%%%@+=+++++++%%%%@++=%% ;",
"8 +=%=+&&&&+%====++@@**@@+++=++@@@@++=%%%@+=%@+++=++@@@@++=%%% 8",
"; =%%%+&&&@+@%%%%=+++@@++++=%=++++++=%%%@+=%%+++=&=++++++=%%%@ ;",
"8 %%%%+@&@+@%%%222222222222222222222222222222222&&&&++%%%%%%@+ 8",
"; %%%%++@+@@@%%24rrrrrrrrrrrrrrrrrrrrrrrrrrrrr42&&&&&++%%%%%+% ;",
"8 %%%%+++%+++@@2w44444444444444444444444444444w2+&&&&&=+%%%%%% 8",
"7   %@+=++===++2w44wwwwwwwwwwwwwwwwwwwwwwwww44w2++&&&&&+@%%%   7",
"7773 ++&=+%%%=+2w44wtttttttttttttttttttttttw44w2=+&&&&&++@@ 3777",
">7133 =&&+%%%%=2w44wtttttttttttttttttttttttw44w2=+@&&&&&@+ 3317>",
">>1133 &&+%%%%%2w44wttooooooooooooooooooootw44w2%=+@@&&@+ 3311>>",
">>1 133 &+++%%%2w44wto33333333333333333333ow44w2%%=++@@+ 331 1>>",
">> & 133 +==+%%2w44wo3333333333333333333333o44w2%%%=+++ 331 & >>",
"> +&& 11 +=%=+%2w44o333311111111111111113333o4w2%%%+=== 11 @&& >",
"> &&&&   =%%%=+2w44o333155555e551111155e1333o4w2%#%+%%%   ++@@ >",
"5e &&@++=%%%@+=2w44o331555111551eeeee1eee133o4w2OO+++@%%%%%++ e5",
"$e @@++=%%%@+=%2w44o331e51uuu111111eee1e5133o4w<====++@@%%@@+ e$",
"$e +++=%%%@+=%%2w44o331551u5uuuuuu11ee155133o4w2%%%%=+++@@+++ e$",
"5e %%%%%%@+=%%%2w44o331551u5uuuuuu11e115e133o4w2%%%%%==++++%% e5",
"5e +%%%%%+%%%%%2w44o331551uuu11u1u11ee155133o4w2%%%+%%%%%%%%% e5",
"5e +++@%%%%%%%%2w44o33155e1115e1111eee155133o4w2%%%%%@+@@@@%% e5",
"5e ===+@%%%%%%%2w44o3315eee55551eeeee15e5133o4w2%%%%@++++++@@ e5",
"5e &&&=+@%%%%%%2w44o33155e555555111115555133o4w2%%%%@+=====++ e5",
"5e &&&&=+@%%%@@2w4ooee11111111111111111111eeoow2@@@@+=%%%%%== e5",
"5e &&&&&+@@@@++2wouuuuuuuuuuuuuuuuuuuuuuuuuuuuo2+++++@@@@%%%@ e5",
"5e @&&&&++++++=2wouuuuuuuu55uuu55uuu5uuu5uuuuuo2===@+++++@%@+ e5",
"5e +@@@@+=====%2wouuuuuuu5uuuu5uu5uu5uuu5uuuuuo2%%@+++==++@+= e5",
"5e +++++++@%%%%2wouuuuuuu5u55u5uu5uu5uuu5uuuuuo2%@++==&&=++=% e5",
"5e +======+@%%%2wouuuuuuu5uu5u5uu5uuuuuuuuuuuuo2@++=&&&&&=++% e5",
"5e +=&&&&&=+@%%2wouuuuuuuu55uuu55uuu5uuu5uuuuuo2++=&&&&&&&=+@ e5",
"5e ++=&&&&&=+@@2wouuuuuuuuuuuuuuuuuuuuuuuuuuuuo2=+=&&&&&&&&++ e5",
"5e ++=&&&&&&+++2w4ooooeee11555e5555e511eeeoooow2=++&&&&&&&&+= e5",
"5e +=+@&&&&++=%2w44wo1o333311111111113333o1o44w2=@++&&&&&&&+& e5",
"5e +=++&&&&+=%%2w44o>>1oo33333333333333oo1>>o4w2=+=+&&&&&&&+& e5",
"5e =&=+&&&&+%%%2w4o>>>>11oo3333333333oo11>>>>ow2@+&+&&&&&&@+& e5",
"5e &&&+&&&@+@%%2w4o>>>>>>11oooooooooo11>>>>>>ow2++&+@@&&&&++& e5",
"5e &&&+@&@+@%%=2w44ooo>>>>o9999999999o>>>>ooo4w2+=&&++@@@@+&& e5",
"5e &&&++@+@@@%=2w44w9o>>>o999999999999o>>>ow44w2+&&&==+++++&& e5",
"5e &&&+++%+++@@2w44w9o>>o99999999999999o>>ow44w2+&&&&&=+&&&&& e5",
"5e &&@+=++===++2w44w99oo9999999999999999oo9w44w2++&&&&&+@&&&@ e5",
"5e @@++%=+%%%=+2w44w99999999999999999999999w44w2=+&&&&&++@@@+ e5",
"5e ++==%%+%%%%=2w44w99999999999999999999999w44w2=+@&&&&&@+++= e5",
"5e ==%%%%+%%%%%2w44w99999999999999999999999w44w2%=+@@&&@+===% e5",
"5e =%%%%%+++%%%2w44w99999999999999999999999w44w2%%=++@@++%%%% e5",
"5e %%%%%@+==+%%2w44w99999999999999999999999w44w2%%%=+++=++%%% e5",
"5e %%%%@++=%=+%2w44w99999999999999999999999w44w2%%%+===%=+@@% e5",
"5e %%%@++=%%%=+2w44w99999999999999999999999w44w2%%%+%%%%%%++@ e5",
"5e %%@++=%%%@+=2w44w99999999999999999999999w44w2+++++@%%%%%++ e5",
"e @@@++=%%%@+=%2w44w99999999999999999999999w44w2====++@@%%@@++ e",
" +++++=%%%@+=%%2w44w99999999999999999999999w44w2%%%%=+++@@++++= ",
"%++%%%%%%@+=%%%24rr4999999999999999999999994rr42%%%%%==++++%%+%%",
"%%++%%%%%+%%%%%22ww2999999999999999999999992ww22%%%+%%%%%%%%%+%%",
"+++++++++++++.......99999999999999999999999.....XX++++++++++++++"
};
