/* XPM */
static char * flag_wall_xpm[] = {
"32 32 10 1",
" 	c #000000",
".	c #7B7B7B",
"+	c #6A6565",
"@	c #323232",
"#	c #FF0000",
"$	c #CB0000",
"%	c #850000",
"&	c #FEFEFE",
"*	c #B9B9B9",
"=	c #DFDFDF",
"                                ",
" .+++++  .+++++++++  +.++ +.+++ ",
" .+++++  .++++++++++ ..++  .+++ ",
" .+++++ ..+++++++++  .++++ ..++ ",
" ++++@+ +++++++++++ ..++++@+.++ ",
" +++@@@@@@@@@@@@@@@@@@@@@@@@..+ ",
"    @@@@@@@@@@@@@@@@@@@@@@@@    ",
" .+ .@++ #++ ++++++++++ $ @ +++ ",
" .+ +.+# #++ .++++++++# % +++++ ",
" .+ +++$ ++  +++++++++# % .++++ ",
" .+  +.% ####%$$##+##+# $ .++++ ",
" ++    $ # ##$$$######+ $ .++++ ",
"    ++ $ ## ######## ## $       ",
" .++++ $ ##  ######  $# #++++++ ",
" .+++++# ###        #$# #++++++ ",
" .+++++# ##  &&*&**  $$ +++++++ ",
" .++++++ $# =  ==  * #$ #++++++ ",
" ++++++# $# = #==# * #$ +++++++ ",
"       $ %# ======== $$ #       ",
" .+  +.# $$  =====*  $% # .++++ ",
" .++  +# #$# *====* %%% #+.++++ ",
" .+++ +# #$$  ****  ### # ...++ ",
" .+++  + ##$#  **  #### #  +..+ ",
" +++++ +# #$%%    #### #+    ++ ",
"        $$ #$$####### #+ +.+    ",
" .++  .  % ######$### $+ +.+++  ",
" .++ ++++%%  ###$$#  %%+  ..+++ ",
" .++  +.++### #$$% #+$+++ +.+++ ",
" .+++  ++.++#+ ## ##.++++  ..++ ",
" +++++ ++++++++ +## ++++++ +.++ ",
" +++++ .+++++++#+#+ +.++++  .++ ",
"                                "};
