/* XPM */
static char * helmet_xpm[] = {
"64 64 28 1",
" 	c None",
".	c #000000",
"+	c #7A7A7A",
"@	c #8F8F8F",
"#	c #979797",
"$	c #F3EEA0",
"%	c #F5F2CD",
"&	c #CECECE",
"*	c #D7D7D7",
"=	c #505050",
"-	c #616161",
";	c #B3B3B3",
">	c #B1B1B1",
",	c #EEEEEE",
"'	c #E8E27E",
")	c #E2DA55",
"!	c #D5D5D5",
"~	c #E0D200",
"{	c #D8CE39",
"]	c #B6AB00",
"^	c #958C00",
"/	c #7C7400",
"(	c #B0B0B0",
"_	c #D0D0D0",
":	c #5F5900",
"<	c #474300",
"[	c #867E00",
"}	c #A99F00",
"                                                                ",
"                                                                ",
"                                                                ",
"                                                                ",
"                                                                ",
"                                                                ",
"                                                                ",
"                                                                ",
"                                                                ",
"                                                                ",
"                                                                ",
"                                                                ",
"                                                                ",
"                               ..                               ",
"                          ............                          ",
"                       ...+@##.$%.&&&*...                       ",
"                     ..=-+@@##.$%.;>&***,..                     ",
"                    .=---+@@##.$%.;>&&&**,,.                    ",
"                   .==--++@###.$$.;>>>&****,.                   ",
"                  .=---++@@###.'$.;;>>&&&&&*,.                  ",
"                  .---++@@####.''.;;;>>>&&&*,.                  ",
"                 .==--+@@@####.''.;;;;;>>&&*,,.                 ",
"                 .---++@@#####.)'.;;;;;;>>&*,,.                 ",
"                 .--++@@@#####.)'.;;;;;;;>&**,.                 ",
"                .=--+@@@######.)'.;;;;;;;>&&*,.                 ",
"                .=--+@@@######.)'.;;;;;;;>&&*,*.                ",
"                .---+@@#######.)).;;;;;;;;;>***.                ",
"                .-........####.)).;;;;........!.                ",
"                .-.~~{))$...##.~).;;..%%%%%$$.!.                ",
"                .-.]{{.)'$$....~)....%$$$.'''.!.                ",
"               .=-.]]{.{).'$$......%$$.''.))).!!.               ",
"               .=-.^]{.{).'''$$$%%%$$$.)).))).!!.               ",
"               .=-.^]].{{.)).'$$$$$.''.~).))).!!.               ",
"                .=./^].~{.)).''''''.)).~{.~)).!.                ",
"                ..-..^]~{.{{.)))))).~~.~~~~..*..                ",
"                 .-+..^]].{{.~~~{~{.~~.~~~~.**.                 ",
"                 .-+@...^]~~.~~~~~~.~~~~...&*,.                 ",
"                 .-+@##..^]~.~~~~~~.~~~..;(&_,.                 ",
"                 .-+@@#@../^]]]]]]]]]]..;;>&_,.                 ",
"                 .-++@###..:^^^^^^^/...;;;>&_,.                 ",
"                 .--+@@##@...:/^^^/:..;;;;>&_,.                 ",
"                 .--+@@#####..:///..;;;;;;>&__.                 ",
"                 .=-++@@#####..::..;;;;;;;;&&_.                 ",
"                 .=--+@@######....;;;;;;;;;&&!.                 ",
"                 ..=-++@######.]].;;;;;;;;;&&..                 ",
"                 .:.=-+@@#####.^].;;;;;;;;&&.%.                 ",
"                 ..:.-++@@####.^].;;;;;;;&&.%..                 ",
"                  ./.=-++@####.^].;;;;;;;&&.$.                  ",
"                  ../.=-+@####.^^.;;;;;;&&.$..                  ",
"                   .]..=++####./^.;;;;;&&..'.                   ",
"                   ..]~.-+####.//.;;;;;&.)'..                   ",
"                    ...<.-+###.:/.;;;;&.)...                    ",
"                      ..[.-+##.::.;;;&.~..                      ",
"                       ..[.-+#.<:.;;&.~..                       ",
"                        ..<.-+.<:.;&.~..                        ",
"                         ..<.-.<<.&.}..                         ",
"                          ..<......}..                          ",
"                           ..<<:<[[..                           ",
"                            ........                            ",
"                                                                ",
"                                                                ",
"                                                                ",
"                                                                ",
"                                                                "};
