/* XPM */
static char * light_wall_xpm[] = {
"32 32 6 1",
" 	c #000000",
".	c #6A6565",
"+	c #7B7B7B",
"@	c #FFE400",
"#	c #FF7800",
"$	c #292929",
"                                ",
".++....  +.........  .+.. .+....",
"++.....  +...+++++.. ++..  +....",
".+....+ ++..++++++.  +.... ++...",
".....++ ..+++++++++ +++... .+...",
".....+.  +++   @    +.+...  ++..",
"             +@@++     +...     ",
"++. +..+.+++ @@#@++++.      ....",
"++. .+++++++@@#@@+++++... ......",
"++. ..+.+++ @####@+++++.. +.....",
"++.  .+.++  +@#@#@++++.+. +.....",
"+..        ++$@$@$     .. +.....",
"    .. ..    $$$$$ . .          ",
".+....  ..+..$$$$$.. .+.........",
".+.+...  .+...$$$..  +..........",
".++.....  .+...$... ++..........",
".++...... .....$... +...........",
"++......  ++....... +...........",
"          +.....       ..       ",
".+.  .+..        .....    +.....",
"++..  ...... +......... ..+.....",
"++... .+.... .+........   +++...",
".+...  .+..  ............  .++..",
"...... .... ..+........      ...",
"        .+. ++.......    .+.    ",
".+..  +          .    .. .+... .",
"++.. ...........   +....  ++....",
"++..  .+.........  .+.... .+....",
"++...  ..+........  +....  ++...",
"..++.. ............ ...... .+...",
"...... +........... .+....  +...",
"                                "};
