/* XPM */
static char * moss_wall_xpm[] = {
"32 32 4 1",
" 	c #000000",
".	c #7B7B7B",
"+	c #6A6565",
"@	c #00580D",
"                                ",
" .+++++  .+++++++++  +.++ @.+++ ",
" .+++++  .++@@@+++++ .@++ @.+++ ",
" .+++++ ..+@@++++++  .@@@+@..++ ",
" ++++++ +++@@+++@++ ..++@@@@.++ ",
" ++++++  @@@@@@@@   .++++@@@@.+ ",
"        @@@  .++@+     ++++ @   ",
" .+ .+++@+++ +++++++++     @@++ ",
" .+ +.++@+++ .+++@+++++++ +@+++ ",
" .+ +++++++  +@@++@+++@@+ .@@++ ",
" .+  +.+++  .++@@+@++@@++ .+@++ ",
" ++        .++++@@@@@@ ++ .++++ ",
"    ++ ++     +  @@+ + @        ",
" .++++  ++.++   +@++ +.@+++++++ ",
" .+++++  +.++++++@+  .+@@++++++ ",
" .++++++  +.++++@@+ ..++@@+++++ ",
" .++++@++ +++++++++ .++++@@++++ ",
" +++++@@  ..++@++++ .++++++++++ ",
"       @@ .@@@@+       ++       ",
" .+  +.+@@@@     +++++    .@+++ ",
" .++  ++@@@+ .++++++@++ ++.@+++ ",
" .+++ +@@+@@ +.+++++@@@@  .@.++ ",
" .+++  @.++@ ++++++++++@@@@@..+ ",
" +++++ ++++@@+.++++++++ @@@  ++ ",
"        +.+ @.+++++++   @+.+    ",
" .++  .     @@@  +    @@@+.+++  ",
" .++ +++++++++@@   .++@@@ ..+++ ",
" .++  +.+++++++@@  +.+@+@@+.+++ ",
" .+++  ++.++++++@@  .+@++@ ..++ ",
" +++++ ++++++++++++ ++@++@@+.++ ",
" +++++ .+++++++++++ +.++++@@.++ ",
"                                "};
