/* XPM */
static char *_3ab2ef1f73d4b88adc3c7e5d6b10d4auwEHAqODAEBllCJS[] = {
/* columns rows colors chars-per-pixel */
"32 32 16 1 ",
"  c black",
". c #1C2115",
"X c #597536",
"o c #755E50",
"O c #4E6E60",
"+ c #637F67",
"@ c #947866",
"# c #628A32",
"$ c #688C3A",
"% c #6F9C38",
"& c #769E42",
"* c #80AB48",
"= c #87B54C",
"- c #8FBF50",
"; c #81967E",
": c #9BCC56",
/* pixels */
"                                ",
"                                ",
"                                ",
"                                ",
"                                ",
"    ..     ..   ..       ..     ",
"   .@@.   .@@. .@@.     .@@.    ",
"   .@o.   .@o. .@o.     .@o.    ",
"   .@o.   .@o. .@o.     .@o.    ",
"   .@o.   .@o. .@o.     .@o.    ",
"   .@o.   .@o. .@o.     .@o.    ",
"   .@o.   .@o. .@o.     .@o.    ",
"   .@o.   .@o. .@o.     .@o.    ",
"   .@o.   .@o. .@o.     .@o.    ",
"   .@o.   .@o. .@o.     .@o.    ",
"   .@o.   .@o. .@o.     .@o.    ",
"   .@o.   .@o. .@o.     .@o.    ",
"   .@o.   .@o. .@o.     .@o.    ",
" ...@o.....@+...@o.......@o.....",
" oo.@o.ooo.@;.@.@o.@@@@@.@o.@@@@",
" oo.@o.+oo.@;.o.@o.ooooo.@o.oooo",
" ...@o.;...@;...@o.......@o.....",
"   .@o.;  .@+. .@o.     .@o.    ",
"   %oo.;  +++.;+oo%     .oo.    ",
"   #o+%;+ +o;.+.oo#  %  %oo.    ",
"   X%+#O+ +oO.;.o+X% #  #oo%    ",
"  %$#+XOO+.oO.%.;%$# X  X%o#    ",
"% #&X;$OOO.+O+#%+#&X%$ %$#oX%  %",
"# X*$%&+O;O+O+X#;X*$#% #&Xo$#% #",
"X%$=&#*+ OOO;O$X%$=&X# X*$%&X# X",
"$#&-*X=  +;O-*$X%&-*$X%$=&#*$X%$",
"&X*:=$:  OOO:=&$#*:=&$#&-*X=&$#&"
};
