/* XPM */
static char *d2e30398d5cb400cfb5dcbff242a62dfpTurWr2YJsXwSQpC[] = {
/* columns rows colors chars-per-pixel */
"32 32 10 1 ",
"  c black",
". c #597536",
"X c #628A32",
"o c #688C3A",
"O c #6F9C38",
"+ c #769E42",
"@ c #80AB48",
"# c #87B54C",
"$ c #8FBF50",
"% c #9BCC56",
/* pixels */
"                                ",
"                                ",
"                                ",
"                                ",
"                                ",
"                                ",
"                                ",
"                                ",
"                                ",
"                                ",
"                                ",
"                                ",
"                                ",
"                                ",
"                                ",
"                                ",
"                                ",
"                                ",
"                                ",
"                                ",
"                                ",
"                                ",
"                                ",
"   O      O    O       O        ",
"   X  O   X  O X  O    X  O   O ",
"   .O X   .O X .O X    .O X   X ",
"  OoX O  OoO .OoX .O  OoX .   .O",
"O X+. XO X+XOoX+. oXO X+. O  OoX",
"X .@oO.X .@.X+.@oO+.X .@oOXO X+.",
".Oo#+Xo.Oo#o.Oo#+X@o.Oo#+X.X .@o",
"oX+$@.+oX+$+oX+$@.#+oX+$@.o.Oo#+",
"+.@%#o%+.@%#+.@%#o% +.@%#o+oX+$@"
};
