/* XPM */
static char *da6ec6cfd4994c44f88e7f191b3ca1caAa3ciumknEGliRwr[] = {
/* columns rows colors chars-per-pixel */
"32 32 9 1 ",
"  c black",
". c gray45",
"X c gray50",
"o c #808080",
"O c #8E8E8E",
"+ c gray74",
"@ c #C1C1C1",
"# c gray79",
"$ c gray81",
/* pixels */
"                                ",
"                                ",
"                                ",
"                                ",
"                                ",
"                                ",
"                                ",
"OO...oooO.....ooOO...oooO.....oo",
"+++#o###O++#.###O++#o###O++#.###",
"##++O###O++#O###O#++O###O++#O###",
"####o##+O###O++#o###o##+O###O++#",
"OOooo.....ooOOOooOooo.....ooOOOo",
"#####O#######O#######O#######O##",
"+++##O++#####.##+++##O++#####.##",
"#####O#######.#######O#######.##",
"#####O####+++.#++####O####+++.#+",
"ooooOOXXXo....OoooooOOXXXo....Oo",
"#########O###############O######",
"##@@@$$##O#$@@@###@@@$$##O#$@@@#",
"#########O####$$#########O####$$",
"####@@+##X##$@@$$###@@+##X##$@@$",
"#########X###############X######",
"$$@@#####.#####$$$@@#####.#####$",
"OO...oooO.....ooOO...oooO.....oo",
"+++#o###O++#.###O++#o###O++#.###",
"##++O###O++#O###O#++O###O++#O###",
"####o##+O###O++#o###o##+O###O++#",
"OOooo.....ooOOOooOooo.....ooOOOo",
"#####O#######O#######O#######O##",
"+++##O++#####.##+++##O++#####.##",
"#####O#######.#######O#######.##",
"#####O####+++.#++####O####+++.#+"
};
