/* XPM */
static char *_f4e2ea20a54471ec0a30194348355bf3bZOA7XAhroG5vDW[] = {
/* columns rows colors chars-per-pixel */
"64 64 16 1 ",
"  c black",
". c #313131",
"X c #353535",
"o c #3E325C",
"O c gray25",
"+ c gray34",
"@ c #756B75",
"# c #FFEB3B",
"$ c #5B4A82",
"% c #706685",
"& c #7A51ED",
"* c #7782B5",
"= c gray56",
"- c gray62",
"; c #ABBACC",
": c SkyBlue",
/* pixels */
"   ::::::::::::::::::::::::::::::::::::::::::::::::::::::::::   ",
"** :::::::::::::::::::::::::::::::::::::::::::::::::::::::::: **",
"** .......................................................... **",
"** OX......XXX..+++++++.XOOOOOOOOOOOX.XXXXOOOX........XOOOOOO **",
"@  OX.+++++....+OOOOOOO+.XOOOOOOOOOX......XXX..+++++++.XOOOOO  @",
"- XX.+OOOOO++X.XXXXOOOOO+.XOOOXOOOOX.+++++....+OOOOOOO+.XOOOOO -",
"@ ...XXXXOOOX......XOOOOO.XXXX.XXXX.+OOOOO++X.XXXXOOOOO+.XOOOX @",
"- +X.....XOX..++++..XOOOO...........XXXXOOOX......XOOOOO.XXXX. -",
"@ X...++..X.++OOOO+..XXXX.++++++++X.....XOX..++++..XOOOO...... @",
"- ..++OO+..+OOOOOOO+.......XOOOOOX...++..X.++OOOO+..XXXX.+++++ -",
"@ .+OOOOO+..OOOOOOOO.++++++.XOOOX..++OO+..+OOOOOOO+.......XOOO @",
"- +OOOOOOO+.XXXOOOOO.+OOOOO+.XOX..+OOOOO+..OOOOOOOO.++++++.XOO -",
"@ +OOOOOOOO....XOOOO..+OOOOO+.X..+OOOOOOO+.XXXOOOOO.+OOOOO+.XO @",
"- .OOOOOOOO.++..XOOO..+OOOOOO..+.+OOOOOOOO....XOOOO..+OOOOO+.X -",
"@ ..OOOOOOO.OO++.XOO.+.XOOOO..++..OOOOOOOO.++..XOOO..+OOOOOO.. @",
"- +.OOOOOOO.OOO+..XX.+..OOOO.+O+X..OOOOOOO.OO++.XOO.+.XOOOO..+ -",
"@ O.OOOOOOX.OOOO+...+O+.OOOO.OO+.+.OOOOOOO.OOO+..XX.+..OOOO.+O @",
"- O.XXOOOO..OOOOO..+OOO.OOOX.XOX.O.OOOOOOX.OOOO+...+O+.OOOO.OO -",
"=   ..XXXX.OOOOOO.+OOOO.XOX.XOO..O.XXOOOO..OOOOO..+OOO.OOOX.   =",
"===% +.....OOOOOX.+OOOO..X.XXXO.+OO..XXXX.OOOOOO.+OOOO.XOX. %===",
"#=$%% +.OOOOOOOX..+OOOO...O...X.OOO++.....OOOOOX.+OOOO..X. %%$=#",
"##$$%% .XOOOXXX..+OOOOX.+..+++..OOOOO+.OOOOOOOX..+OOOO... %%$$##",
"##$ $%% .XXX....+OOXXX..O+.OOO+..OOOOO.XOOOXXX..+OOOOX.+ %%$ $##",
"## O $%% ...+++.XXX...++OO.OOOO+.OOOOO..XXX....+OOXXX.. %%$ O ##",
"# .XX $$ +++OO+.....++OOOO.OOOO+.XOOOOOX...+++.XXX...++ $$ OOO #",
"# +..X   OOOOOO++++.+OOOOO...OOO+.XXOOX.+++OO+.....++OO   OOOO #",
"&; +...+..OOOOOOOOX.OOOOOOX.XXXXOOOX........XOOOOOOOOOOOO...O ;&",
"o; .+++O+.XXOOOOOX..OOOOOX......XXX..+++++++.XOOOOOOOOOOX.++. ;o",
"o; .OOOOOO..XXXXX..OOOOOOX.+++++....+OOOOOOO+.XOOOOOOOOX..+O+ ;o",
"&; ..XOOOOO.......OOOXXXX.+OOOOO++X.XXXXOOOOO+.XOOOXXOX..+OOO ;&",
"&; +..XXOOXX...+..XXX.....XXXXOOOX......XOOOOO.XXXX..X..+OOOX ;&",
"&; O+...XX....+O+....+++X.....XOX..++++..XOOOO......+..+OOOX. ;&",
"&; OO++....OO.OOOO..OOOX...++..X.++OOOO+..XXXX.+++++O.+OOOX.+ ;&",
"&; .OOOOOOOOO.OOOOO..OX..++OO+..+OOOOOOO+.......XOOOOOOOOX.+O ;&",
"&; OX.XXXXOOOX.......X..+OOOOO+..OOOOOOOO.++++++.XOOOOOOOX.XX ;&",
"&; X......XXX..++++++..+OOOOOOO+.XXXOOOOO.+OOOOO+.XOOOOOX.... ;&",
"&; X.+++++....+OOOOOO+.+OOOOOOOO....XOOOO..+OOOOO+.XOOOOX.+++ ;&",
"&; .+OOOOO++X.XXXXOOO+..OOOOOOOO.++..XOOO..+OOOOOO..XXXX.+OOO ;&",
"&; .XXXXOOOX......XOO+X..OOOOOOO.OO++.XOO.+.XOOOO..+.....XXXX ;&",
"&; .....XOX..++++..XO+.+.OOOOOOO.OOO+..XX.+..OOOO.+O+++X..... ;&",
"&; ..++..X.++OOOO+..XX.O.OOOOOOX.OOOO+...+O+.OOOO.OOOOX...++. ;&",
"&; ++OO+..+OOOOOOO+....O.XXOOOO..OOOOO..+OOO.OOOX.XOOX..++OO+ ;&",
"&; OOOOO+..OOOOOOOO.+.+OO..XXXX.OOOOOO.+OOOO.XOX.XOOX..+OOOOO ;&",
"&; OOOOOO+.XXXOOOOO.+.OOO++.....OOOOOX.+OOOO..X.XXXO..+OOOOOO ;&",
"&; OOOOOOO....XOOOO...OOOOO+.OOOOOOOX..+OOOO...O...X+.+OOOOOO ;&",
"&; OOOOOOO.++..XOOO....OOOOO.XOOOXXX..+OOOOX.+..+++.+..OOOOOO ;&",
"&; OOOOOOO.OO++.XOO.++.OOOOO..XXX....+OOXXX..O+.OOO++X..OOOOO ;&",
"&; OOOOOOO.OOO+..XX.++.XOOOOOX...+++.XXX...++OO.OOOO+.+.OOOOO ;&",
"&; OOOOOOX.OOOO+...+OO+.XXOOX.+++OO+.....++OOOO.OOOOX.O.OOOOO ;&",
"&; XXOOOO..OOOOO..+OOOO+..XX..OOOOOO++++.+OOOOO...OO..O.XXOOO ;&",
"&; ..XXXX.OOOOOO.+OOOOOO+...+..OOOOOOOOX.OOOOOX.++.O.+OO..XXX ;&",
"&; ++.....OOOOOX.+OOOOOO.+++O+.XXOOOOOX..OOOOX..+O+..OOO++... ;&",
"&; OO+.OOOOOOOX..+OOOOOO.OOOOOO..XXXXX..OOOOX..+OOO+.OOOOO+.O ;&",
"&; OOO.XOOOXXX..+OOOO.....XOOOOO.......OOOOX..+OOOX...OOOOO.X ;&",
"&; OOO..XXX....+OOXXX++++..XXOOXX...+..XXXX..+OOOX.++.OOOOO.. ;&",
"&; OOOOX...+++.XXX...OOOO+...XX....+O+......+OOOX.+O+.XOOOOOX ;&",
"&; XOOX.+++OO+.....++OOOOO++....OO.OOOO..OOOOOOX.+OOO+.XXOOX. ;&",
"&; .XX..OOOOOO++++.+OOOO.OOOOOOOOO.OOOOO..OOOOO.OOOOOO+..XX.. ;&",
"&; ...+..OOOOOOOOX.OOOOOOX.XXXXOOOX........XOOOOOOOOOOO+...+. ;&",
"; .+++O+.XXOOOOOX..OOOOOX......XXX..+++++++.XOOOOOOOOOO.+++O+. ;",
" O.OOOOOO..XXXXX..OOOOOOX.+++++....+OOOOOOO+.XOOOOOOOOO.OOOOOO. ",
"....XOOOOO.......OOOXXXX.+OOOOO++X.XXXXOOOOO+.XOOOXX.....XOOOOO.",
"+++..XXOOXX...+..XXX.....XXXXOOOX......XOOOOO.XXXX..++++..XXOOXX",
"OOO+...XX....+O+....+++X.....XOX..++++..XOOOO......+OOOO+...XX.."
};
