/* XPM */
static char *f7423e1f8a604e87a89278306344d913mlr8kG589l9NFIuw[] = {
/* columns rows colors chars-per-pixel */
"64 64 9 1 ",
"  c #433D58",
". c #425C6E",
"X c #45667F",
"o c #904545",
"O c #C25353",
"+ c #4B659D",
"@ c #9FA6B3",
"# c SkyBlue",
"$ c #C5CCDB",
/* pixels */
"################################################################",
"################################################################",
"################################################################",
"################################################################",
"################################################################",
"################################################################",
"################################################################",
"################################################################",
"################################################################",
"################################################################",
"################################################################",
"################################################################",
"################################################################",
"###+++++++++++++++++++++++++++++++++++++++++++++++++++++++++####",
"##+++++++++++++++++++++++++++++++++++++++++++++++++++++++++++###",
"##+++++OOOo++++++++++++++++++++++++++++++++++++++++++++++++++X##",
"##++++OOOOOo+++                                      ++++++++X##",
"##+++OO$O$OOo++++++++++++++++++++++++++++++++++++++++++++++++X##",
"##+++OOO$OOOo++++++++++++++++++++++++++++++++++++++++++++++++X##",
"##+++OO$O$OOo++          ++++++++++++++++++++++++++++++++++++X##",
"##++++OOOOOo+++++++++++++++++++++++++++++++++++++++++++++++++X##",
"##+++++OOOo++++++++++++++++++++++++++++++++++++++++++++++++++X##",
"##+++++++++++++++++++++++++++++++++++++++++++++++++++++++++++X##",
"##+++++++++++++++++++++++++++++++++++++++++++++++++++++++++++X##",
"##+$$$$$$$$$$$$$$$$$$$$$$$$$$$$$$$$$$$$$$$$$$$$$$$$$$$$$$$$$+X##",
"##+$$$$$$$$$$$$$$$$$$$$$$$$$$$$$$$$$$$$$$$$$$$$$$$$$$$$$$$$$+X##",
"##+$$$$$$$$$$$$$$$$$$$$$$$$$$$$$$$$$$$$$$$$$$$$$$$$$$$$$$$$$+X##",
"##+$$$$$$$$$$$$$$$$$$$$$$$$$$$$$$$$$$$$$$$$$$$$$$$$$$$$$$$$$+X##",
"##+$$$@@@@$@@@@@@@@@@@@@@@@@@@@@@@@@@@@@@@@@@@@@@@@@@@@@$$$$+X##",
"##+$$$$$$$$$$$$$$$$$$$$$$$$$$$$$$$$$$$$$$$$$$$$$$$$$$$$$$$$$+X##",
"##+$$$$$$$$$$$$$$$$$$$$$$$$$$$$$$$$$$$$$$$$$$$$$$$$$$$$$$$$$+X##",
"##+$$$@@@@@@@@$$@@@@$@@@@@@@@@@@@@@$$$@@@@@@@@@@$$$$$$$$$$$$+X##",
"##+$$$$$$$$$$$$$$$$$$$$$$$$$$$$$$$$$$$$$$$$$$$$$$$$$$$$$$$$$+X##",
"##+$$$@@@@@@@@@@@@@@@@@@@@@@@@@@@@@@@@@@@$@@$@@@@@@@$$$$$$$$+X##",
"##+$$$$$$$$$$$$$$$$$$$$$$$$$$$$$$$$$$$$$$$$$$$$$$$$$$$$$$$$$+X##",
"##+$$$$$$$$$$$$$$$$$$$$$$$$$$$$$$$$$$$$$$$$$$$$$$$$$$$$$$$$$+X##",
"##+$$$$$$$$$$$$$$$$$$$$$$$$$$$$$$$$$$$$$$$$$$$$$$$$$$$$$$$$$+X##",
"##+$$$$$$$$$$$$$$$$$$$$$$$$$$$$$$$$$$$$$$$$$$$$$$$$$$$$$$$$$+X##",
"##+$$$$$$$$$$$$$$$$$$$$$$$$$$$$$$$$$$$$$$$$$$$$$$$$$$$$$$$$$+X##",
"##+$$$$$$$$$$$$$$$$$$$$$$$$$$$$$$$$$$$$$$$$$$$$$$$$$$$$$$$$$+X##",
"##+$$$$$$$$$$$$$$$$$$@@@@@@@@@@@@@@@@@@@@@@$$$$$$$$$$$$$$$$$+X##",
"##+$$$$$$$$$$$$$$$$$$@$$$$$$$$$$$$$$$$$$$$@$$$$$$$$$$$$$$$$$+X##",
"##+$$$$$$$$$$$$$$$$$$@$$$$$$$$$$$$$$$$$$$$@$$$$$$$$$$$$$$$$$+X##",
"##+$$$$$$$$$$$$$$$$$$@$$$$$$$$$$$$$$$$$$$$@$$$$$$$$$$$$$$$$$+X##",
"##+$$$$$$$$$$$$$$$$$$@$$$$$$$$$$$$$$$$$$$$@$$$$$$$$$$$$$$$$$+X##",
"##+$$$$$$$$$$$$$$$$$$@$$$$$$$$$$$$$$$$$$$$@$$$$$$$$$$$$$$$$$+X##",
"##+$$$$$$$$$$$$$$$$$$@@@@@@@@@@@@@@@@@@@@@@$$$$$$$$$$$$$$$$$+X##",
"##+$$$$$$$$$$$$$$$$$$$$$$$$$$$$$$$$$$$$$$$$$$$$$$$$$$$$$$$$$+X##",
"##+$$$$$$$$$$$$$$$$$$$$$$$$$$$$$$$$$$$$$$$$$$$$$$$$$$$$$$$$$+X##",
"###+++++++++++++++++++++++++++++++++++++++++++++++++++++++++.X##",
"####XXXXXXXXXXXXXXXXXXXXXXXXXXXXXXXXXXXXXXXXXXXXXXXXXXXXXXXXX###",
"################################################################",
"################################################################",
"################################################################",
"################################################################",
"################################################################",
"################################################################",
"################################################################",
"################################################################",
"################################################################",
"################################################################",
"################################################################",
"################################################################",
"################################################################"
};
