/* XPM */
static char *d04a1eb3f91c41aada70d298bd4186983Ewlk8ufjR5ikkEU[] = {
/* columns rows colors chars-per-pixel */
"64 64 17 1 ",
"  c black",
". c #313131",
"X c #353535",
"o c #3E325C",
"O c gray25",
"+ c gray34",
"@ c #756B75",
"# c gray47",
"$ c #FFEB3B",
"% c #5B4A82",
"& c #706685",
"* c #7A51ED",
"= c #7782B5",
"- c gray56",
"; c gray62",
": c #ABBACC",
"> c SkyBlue",
/* pixels */
"   >>>>>>>>>>>>>>>>>>>>>>>>>>>>>>>>>>>>>>>>>>>>>>>>>>>>>>>>>>   ",
"== >>>>>>>>>>>>>>>>>>>>>>>>>>>>>>>>>>>>>>>>>>>>>>>>>>>>>>>>>> ==",
"== .......................................................... ==",
"== OX......XXX..+++++++.XOOOOOOOOOOOX.XXXXOOOX........XOOOOOO ==",
"@  OX.+++++....+OOOOOOO+.XOOOOOOOOOX......XXX..+++++++.XOOOOO  @",
"; XX.+OOOOO++X.XXXXOOOOO+.XOOOXOOOOX.+++++....+OOOOOOO+.XOOOOO ;",
"@ ...XXXXOOOX......XOOOOO.XXXX.XXXX.+OOOOO++X.XXXXOOOOO+.XOOOX @",
"; +X.....XOX..++++..XOOOO...........XXXXOOOX......XOOOOO.XXXX. ;",
"@ X...++..X.++####+..XXXX.++++++++X.....XOX..++++..XOOOO...... @",
"; ..++##+..+#######+.......XOOOOOX...++..X.++####+..XXXX.+++++ ;",
"@ .+#####+..########.++++++.XOOOX..++##+..+#######+.......XOOO @",
"; +#######+.XXX#####.+#####+.XOX..+#####+..########.++++++.XOO ;",
"@ +########....X####..+#####+.X..+#######+.XXX#####.+#####+.XO @",
"; .########.++..X###..+######..+.+########....X####..+#####+.X ;",
"@ ..#######.##++.X##.+.X####..++..########.++..X###..+######.. @",
"; +.#######.###+..XX.+..####.+O+X..#######.##++.X##.+.X####..+ ;",
"@ O.######X.####+...+O+.####.OO+.+.#######.###+..XX.+..####.+O @",
"; O.XX####..#####..+OOO.###X.XOX.#.######X.####+...+O+.####.OO ;",
"-   ..XXXX.######.+OOOO.X#X.XOO..#.XX####..#####..+OOO.###X.   -",
"---& +.....#####X.+OOOO..X.XXXO.+##..XXXX.######.+OOOO.X#X. &---",
"$-%&& +.#######X..+OOOO...O...X.###++.....#####X.+OOOO..X. &&%-$",
"$$%%&& .X###XXX..+OOOOX.+..+++..#####+.#######X..+OOOO... &&%%$$",
"$$% %&& .XXX....+OOXXX..#+.###+..#####.X###XXX..+OOOOX.+ &&% %$$",
"$$ O %&& ...+++.XXX...++##.####+.#####..XXX....+OOXXX.. &&% O $$",
"$ .XX %% +++OO+.....++####.####+.X#####X...+++.XXX...++ %% OOO $",
"$ +..X   OOOOOO++++.+#####...###+.XX##X.+++OO+.....++OO   OOOO $",
"*: +...+..OOOOOOOOX.######X.XXXXOOOX........XOOOOOOOOOOOO...O :*",
"o: .+++O+.XXOOOOOX..#####X......XXX..+++++++.XOOOOOOOOOOX.++. :o",
"o: .OOOOOO..XXXXX..######X.+++++....+OOOOOOO+.XOOOOOOOOX..+O+ :o",
"*: ..XOOOOO.......###XXXX.+OOOOO++X.XXXXOOOOO+.XOOOXXOX..+OOO :*",
"*: +..XXOOXX...+..XXX.....XXXXOOOX......XOOOOO.XXXX..X..+OOOX :*",
"*: O+...XX....+O+....+++X.....XOX..++++..XOOOO......+..+OOOX. :*",
"*: OO++....OO.OOOO..OOOX...++..X.++####+..XXXX.+++++O.+OOOX.+ :*",
"*: .OOOOOOOOO.OOOOO..OX..++##+..+#######+.......XOOOOOOOOX.+O :*",
"*: OX.XXXXOOOX.......X..+#####+..########.++++++.XOOOOOOOX.XX :*",
"*: X......XXX..++++++..+#######+.XXX#####.+#####+.XOOOOOX.... :*",
"*: X.+++++....+######+.+########....X####..+#####+.XOOOOX.+++ :*",
"*: .+OOOOO++X.XXXX###+..########.++..X###..+######..XXXX.+OOO :*",
"*: .XXXXOOOX......X##+X..#######.##++.X##.+.X####..+.....XXXX :*",
"*: .....XOX..++++..X#+.+.#######.###+..XX.+..####.+O+++X..... :*",
"*: ..++..X.++####+..XX.O.######X.####+...+#+.####.OOOOX...++. :*",
"*: ++##+..+#######+....O.XX####..#####..+###.###X.XOOX..++##+ :*",
"*: #####+..########.+.+OO..XXXX.######.+####.X#X.XOOX..+##### :*",
"*: ######+.XXX#####.+.OOO++.....#####X.+####..X.XXXO..+###### :*",
"*: #######....X####...OOOOO+.#######X..+####...O...X+.+###### :*",
"*: #######.++..X###....OOOOO.X###XXX..+####X.+..+++.+..###### :*",
"*: #######.OO++.X##.++.OOOOO..XXX....+##XXX..O+.OOO++X..##### :*",
"*: #######.OOO+..XX.++.XOOOOOX...+++.XXX...++OO.OOOO+.+.##### :*",
"*: ######X.OOOO+...+OO+.XXOOX.+++OO+.....++OOOO.OOOOX.O.##### :*",
"*: XX####..OOOOO..+OOOO+..XX..OOOOOO++++.+OOOOO...OO..O.XX### :*",
"*: ..XXXX.OOOOOO.+OOOOOO+...+..OOOOOOOOX.OOOOOX.++.O.+OO..XXX :*",
"*: ++.....OOOOOX.+OOOOOO.+++O+.XXOOOOOX..OOOOX..+O+..OOO++... :*",
"*: OO+.OOOOOOOX..+OOOOOO.OOOOOO..XXXXX..OOOOX..+OOO+.OOOOO+.O :*",
"*: OOO.XOOOXXX..+OOOO.....XOOOOO.......OOOOX..+OOOX...OOOOO.X :*",
"*: OOO..XXX....+OOXXX++++..XXOOXX...+..XXXX..+OOOX.++.OOOOO.. :*",
"*: OOOOX...+++.XXX...OOOO+...XX....+O+......+OOOX.+O+.XOOOOOX :*",
"*: XOOX.+++OO+.....++OOOOO++....OO.OOOO..OOOOOOX.+OOO+.XXOOX. :*",
"*: .XX..OOOOOO++++.+OOOO.OOOOOOOOO.OOOOO..OOOOO.OOOOOO+..XX.. :*",
"*: ...+..OOOOOOOOX.OOOOOOX.XXXXOOOX........XOOOOOOOOOOO+...+. :*",
": .+++O+.XXOOOOOX..OOOOOX......XXX..+++++++.XOOOOOOOOOO.+++O+. :",
" O.OOOOOO..XXXXX..OOOOOOX.+++++....+OOOOOOO+.XOOOOOOOOO.OOOOOO. ",
"....XOOOOO.......OOOXXXX.+OOOOO++X.XXXXOOOOO+.XOOOXX.....XOOOOO.",
"+++..XXOOXX...+..XXX.....XXXXOOOX......XOOOOO.XXXX..++++..XXOOXX",
"OOO+...XX....+O+....+++X.....XOX..++++..XOOOO......+OOOO+...XX.."
};
