/* XPM */
static char *_464d3dd32ef4f81ba76580c25f0f194S8p3dVM7PMq5MhMe[] = {
/* columns rows colors chars-per-pixel */
"64 64 17 1 ",
"  c #611F1F",
". c #572E0B",
"X c #573012",
"o c #612020",
"O c #6D2222",
"+ c #782626",
"@ c #7D3131",
"# c #7D4F2E",
"$ c #6D4C41",
"% c #8A2020",
"& c #9C3E3E",
"* c #BD6868",
"= c #C78E5F",
"- c #BCAAA4",
"; c #E0A8A8",
": c SkyBlue",
"> c #D7CCC8",
/* pixels */
"::::::::::::::::::::::::::::XXXXXX::::::::::::::::::::::::::::::",
":::::::::::::::::::::::::::X######X:::::::::::::::::::::::::::::",
":::::::::::::::::::::::::XX###==###XXX::::::::::::::::::::::::::",
":::::::::::::::::::::::XX###==##==####XX::::::::::::::::::::::::",
":::::::::::::::oooooooX###==######==####Xooooooo::::::::::::::::",
":::::::::::::::o**&oXX###=##########==###XXo&**o::::::::::::::::",
":::::::::::::::o*&&X###==####....#####==###X&&*o::::::::::::::::",
":::::::::::ooooo*&%X#==#####.-$--.######==#X%&*ooooo::::::::::::",
":::::::::::o**&o;&%X#######.->$>>-.########X%&;o&**o::::::::::::",
":::::::::::o*&&o;&%X######.->>$>>$-.#######X%&;o&&*o::::::::::::",
":::::::ooooo*&%o;&%X######.-$>$$>>-.#######X%&;o%&*ooooo::::::::",
":::::::o**&o;&%o;&%X#######.->>>>-.########X%&;o%&;o&**o::::::::",
":::::::o*&&o;&%o*&&X########.--X-.#########X&&*o%&;o&&*o::::::::",
":::::::o*&%o;&%o**&XXXXXXXXXXXXXXXXXXXXXXXXX&**o%&;o%&*o::::::::",
":::::::o;&%o;&%ooooo%%oooooooo%%%%%%%oooo%%ooooo%&;o%&;o::::::::",
":::::::o;&%o;&%o***&&&o%%%%%ooooooo%%%%%o&&&***o%&;o%&;o::::::::",
":::::::o*&&o*&&o&&&%%%oooo&&o*;;;*o&&oooo%%%&&&o&&*o&&*o::::::::",
":::::::o**&o**&o&&%%oo;**&ooo;***;ooo&**;oo%%&&o&**o&**o::::::::",
":::::::oooooooooooooo&***&&%o*&&&*o&&&***&oooooooooooooo::::::::",
":::::::o;;;;;;**&%%%o&**&&&%o%&&&*o&&&&**&o%%%&**;;;;;;o::::::::",
":::::::o***&&&&&%oooo&&&&&%&o%&&&&o&&&&&&&oooo%&&&&&***o::::::::",
":::::::o%%%%%%%%O**&&o%&&%%%o%&&&%o&%%&&%O&&**O%%%%%%%%o::::::::",
":::::::ooooooooo;;*&&&oo%%%%%O%%%o%%%%%oo&&&*;;ooooooooo::::::::",
":::::::o;**&%%%o***&%&&%ooooo:ooo:ooooo%&&%&***o%%%&**;o::::::::",
":::::::o&&&&%oo&o&&%&%%%o:::::::::::::o%%%&%&&o&oo%&&&&o::::::::",
":::::::o%%%%O&&&&oo%%%%%o:::::::::::::o%%%%%OO&&&&o%%%%o::::::::",
":::::::ooooo;***&%%ooooooooooooooooooooooooo%%&***;ooooo::::::::",
":::::::o;&%o;*&&&%%%%o+++++o+++@@+++o++++o%%%%&&&*;o%&;o::::::::",
":::::::o*&%o&&%%&&&&o++++@@o+++@@+++o@@@++o&&&&%%&&o%&*o::::::::",
":::::::o%%oooo%%%%%%o+++++++++++++++++++++o%%%%%%oooo%%o::::::::",
":::::::o%o&*&&ooooooooooooooooooooooooooooooooooo&&*&o%o::::::::",
":::::::o%o;*&&&&%%o++++@@@@ @@@@@@@@++ &&&&&o%%&&&&*;o%o::::::::",
":::::::o%o*%&&%%%%o++++++++ ++++++++++ +++++o%%%%&&%*o%o::::::::",
":::::::ooooooooooo+++++++++++++++++++++++++++ooooooooooo::::::::",
":::::::o*;;**&%%ooooooooooooooooooooooooooooooo%%&**;;*o::::::::",
":::::::o&&%%&&&%o++++ +++&&&&&&++ @@@@@@@@@@@@o%&&&%%&&o::::::::",
":::::::oooooooooo++++ +++++++++++ ++++++++++++oooooooooo::::::::",
":::::::o**&o**&o+++++++++++++++++++++++++++++++o&**o&**o::::::::",
":::::::o*&&o*&&ooooooooooooooooooooooooooooooooo&&*o&&*o::::::::",
":::::::o&%%o&%%o:::::::@@@@ @@@@@@@@:: &&&&::::o%%&o%%&o::::::::",
":::::::ooooooooo::::::::::: :::::::::: ::::::::ooooooooo::::::::",
":::::::o*;;****o:::::::::::::::::::::::::::::::o****;;*o::::::::",
":::::::o%***&&&ooooooooooooooooooooooooooooooooo&&&***%o::::::::",
":::::::o%&&&&&&o+++++ +++&&&&&&++ +@@@@@@@@@@@ o&&&&&&%o::::::::",
":::::::ooooooooo+++++ +++++++++++ ++++++++++++ ooooooooo::::::::",
":::::::o**&o**&o+++++++++++++++++++++++++++++++o&**o&**o::::::::",
":::::::o*&&o*&&ooooooooooooooooooooooooooooooooo&&*o&&*o::::::::",
":::::::o&%%o&%%o+++++++@@@@ @@@@@@@@++ &&&&++++o%%&o%%&o::::::::",
":::::::ooooooooo+++++++++++ ++++++++++ ++++++++ooooooooo::::::::",
":::::::o*;*****o+++++++++++++++++++++++++++++++o*****;*o::::::::",
":::::::o%****&&ooooooooooooooooooooooooooooooooo&&****%o::::::::",
":::::::o%&&&&&&o::::: :::&&&&&&:: :@@@@@@@@@@@ o&&&&&&%o::::::::",
":::::::ooooooooo::::: ::::::::::: :::::::::::: ooooooooo::::::::",
":::::::o**&o**&o:::::::::::::::::::::::::::::::o&**o&**o::::::::",
":::::::o*&&o*&&ooooooooooooooooooooooooooooooooo&&*o&&*o::::::::",
":::::::o&%%o&%%o+++++++@@@@ @@@@@@@@++ &&&&++++o%%&o%%&o::::::::",
":::::::ooooooooo+++++++++++ ++++++++++ ++++++++ooooooooo::::::::",
":::::::o*;;****o+++++++++++++++++++++++++++++++o****;;*o::::::::",
":::::::o%****&&ooooooooooooooooooooooooooooooooo&&****%o::::::::",
":::::::o%&&&&&&o+++++ +++&&&&&&++ +@@@@@@@@@@@ o&&&&&&%o::::::::",
":::::::ooooooooo+++++ +++++++++++ ++++++++++++ ooooooooo::::::::",
":::::::o**&o**&o+++++++++++++++++++++++++++++++o&**o&**o::::::::",
":::::::o*&&o*&&ooooooooooooooooooooooooooooooooo&&*o&&*o::::::::",
":::::::o&%%o&%%o+++++++@@@@ ::::::::++ &&&&++++o%%&o%%&o::::::::"
};
