/* XPM */
static char *e2106d7e6ab848e1c43694ead2ca9bebeXMGXpx6PXKCpoxo[] = {
/* columns rows colors chars-per-pixel */
"64 64 19 1 ",
"  c #572E0B",
". c #573012",
"X c #612020",
"o c #6D2222",
"O c #7D4F2E",
"+ c #6D4C41",
"@ c #8A2020",
"# c #9C3232",
"$ c #9C3E3E",
"% c #AD3C3C",
"& c #BD6868",
"* c #C04B4B",
"= c #C78E5F",
"- c #BCAAA4",
"; c #C79FA0",
": c #D9B4B6",
"> c #E0A8A8",
", c SkyBlue",
"< c #D7CCC8",
/* pixels */
",,,,,,,,,,,,,,,,,,,,,,,,,,,,......,,,,,,,,,,,,,,,,,,,,,,,,,,,,,,",
",,,,,,,,,,,,,,,,,,,,,,,,,,,.OOOOOO.,,,,,,,,,,,,,,,,,,,,,,,,,,,,,",
",,,,,,,,,,,,,,,,,,,,,,,,,..OOO==OOO...,,,,,,,,,,,,,,,,,,,,,,,,,,",
",,,,,,,,,,,,,,,,,,,,,,,..OOO==OO==OOOO..,,,,,,,,,,,,,,,,,,,,,,,,",
",,,,,,,,,,,,,,,XXXXXXX.OOO==OOOOOO==OOOO.XXXXXXX,,,,,,,,,,,,,,,,",
",,,,,,,,,,,,,,,X&&$X..OOO=OOOOOOOOOO==OOO..X$&&X,,,,,,,,,,,,,,,,",
",,,,,,,,,,,,,,,X&$$.OOO==OOOO    OOOOO==OOO.$$&X,,,,,,,,,,,,,,,,",
",,,,,,,,,,,XXXXX&$@.O==OOOOO -+-- OOOOOO==O.@$&XXXXX,,,,,,,,,,,,",
",,,,,,,,,,,X&&$X>$@.OOOOOOO -<+<<- OOOOOOOO.@$>X$&&X,,,,,,,,,,,,",
",,,,,,,,,,,X&$$X>$@.OOOOOO -<<+<<+- OOOOOOO.@$>X$$&X,,,,,,,,,,,,",
",,,,,,,XXXXX&$@X>$@.OOOOOO -+<++<<- OOOOOOO.@$>X@$&XXXXX,,,,,,,,",
",,,,,,,X&&$X>$@X>$@.OOOOOOO -<<<<- OOOOOOOO.@$>X@$>X$&&X,,,,,,,,",
",,,,,,,X&$$X>$@X&$$.OOOOOOOO --.- OOOOOOOOO.$$&X@$>X$$&X,,,,,,,,",
",,,,,,,X&$@X>$@X&&$.........................$&&X@$>X@$&X,,,,,,,,",
",,,,,,,X>$@X>$@XXXXX@@XXXXXXXX@@@@@@@XXXX@@XXXXX@$>X@$>X,,,,,,,,",
",,,,,,,X>$@X>$@X&&&$$$X@@@@@XXXXXXX@@@@@X$$$&&&X@$>X@$>X,,,,,,,,",
",,,,,,,X&$$X&$$X$$$@@@XXXX$$X&>>>&X$$XXXX@@@$$$X$$&X$$&X,,,,,,,,",
",,,,,,,X&&$X&&$X$$@@XX>&&$XXX>&&&>XXX$&&>XX@@$$X$&&X$&&X,,,,,,,,",
",,,,,,,XXXXXXXXXXXXXX$&&&$$@X&$$$&X$$$&&&$XXXXXXXXXXXXXX,,,,,,,,",
",,,,,,,X>>>>>>&&$@@@X$&&$$$@X@$$$&X$$$$&&$X@@@$&&>>>>>>X,,,,,,,,",
",,,,,,,X&&&$$$$$@XXXX$$$$$@$X@$$$$X$$$$$$$XXXX@$$$$$&&&X,,,,,,,,",
",,,,,,,X@@@@@@@@o&&$$X@$$@@@X@$$$@X$@@$$@o$$&&o@@@@@@@@X,,,,,,,,",
",,,,,,,XXXXXXXXX>>&$$$XX@@@@@o@@@X@@@@@XX$$$&>>XXXXXXXXX,,,,,,,,",
",,,,,,,X>&&$@@@X&&&$@$$@XXXXX,XXX,XXXXX@$$@$&&&X@@@$&&>X,,,,,,,,",
",,,,,,,X$$$$@XX$X$$@$@@@X,,,,,,,,,,,,,X@@@$@$$X$XX@$$$$X,,,,,,,,",
",,,,,,,X@@@@o$$$$XX@@@@@X,,,,,,,,,,,,,X@@@@@oo$$$$X@@@@X,,,,,,,,",
",,,,,,,XXXXX>&&&$@@XXXXXX,,,,,,,,,,,,XXXXXXX@@$&&&>XXXXX,,,,,,,,",
",,,,,,,X>$@X>&$$$@@@@X,,,,,,,,,,,,,,,,,,,X@@@@$$$&>X@$>X,,,,,,,,",
",,,,,,,X&$@X$$@@$$$$X,,,,,,,,,,,,,,,,,,,,,X$$$$@@$$X@$&X,,,,,,,,",
",,,,,,,X@@XXXX@@@@@@X,,,,,,,,,,,,,,,,,,,,,X@@@@@@XXXX@@X,,,,,,,,",
",,,,,,,X@X$&$$XXXXXXX,,,,,,,,,,,,,,,,,,,,,XXXXXXX$$&$X@X,,,,,,,,",
",,,,,,,X@X>&$$$$@@X,,,,,,,,,,,,,,,,,,,,,,,,,X@@$$$$&>X@X,,,,,,,,",
",,,,,,,X@X&@$$@@@@X,,,,,,,,,,,,,,,,,,,,,,,,,X@@@@$$@&X@X,,,,,,,,",
",,,,,,,XXXXXXXXXXX,,,,,,,,,,,,,,,,,,,,,,,,,,,XXXXXXXXXXX,,,,,,,,",
",,,,,,,X&>>&&$@@XX,,,,,,,,,,,,,,,,,,,,,,,,,,,XX@@$&&>>&X,,,,,,,,",
",,,,,,,X$$@@$$$@X,,,,,,,,,,,,,,,,,,,,,,,,,,,,,X@$$$@@$$X,,,,,,,,",
",,,,,,,XXXXXXXXXX,,,,,,,,,,,,,,,,,,,,,,,,,,,,,XXXXXXXXXX,,,,,,,,",
",,,,,,,X&&$X&&$X,,,,,,,,,,,,,,,,,,,,,,,,,,,,,,,X$&&X$&&X,,,,,,,,",
",,,,,,,X&$$X&$$X,,,,,,,,,,,,,,,,,,,,,,,,,,,,,,,X$$&X$$&X,,,,,,,,",
",,,,,,,X$@@X$@@X*********%;********%;*********%X@@$X@@$X,,,,,,,,",
",,,,,,,XXXXXXXXX*%%%%%%%%#:*%%%%%%%#:*%%%%%%%%#XXXXXXXXX,,,,,,,,",
",,,,,,,X&>>&&&&X*%%%%%%%%#:*%%%%%%%#:*%%%%%%%%#X&&&&>>&X,,,,,,,,",
",,,,,,,X@&&&$$$X*%%%%%%%%#:*%%%%%%%#:*%%%%%%%%#X$$$&&&@X,,,,,,,,",
",,,,,,,X@$$$$$$X%#########;%########;%#########X$$$$$$@X,,,,,,,,",
",,,,,,,XXXXXXXXX****;*********%;*********%;****XXXXXXXXX,,,,,,,,",
",,,,,,,X&&$X&&$X%%%%:*%%%%%%%%#:*%%%%%%%%#:%%%%X$&&X$&&X,,,,,,,,",
",,,,,,,X&$$X&$$X%%%%:*%%%%%%%%#:*%%%%%%%%#:%%%%X$$&X$$&X,,,,,,,,",
",,,,,,,X$@@X$@@X%%%%:*%%%%%%%%#:*%%%%%%%%#:%%%%X@@$X@@$X,,,,,,,,",
",,,,,,,XXXXXXXXX####;%#########;%#########;####XXXXXXXXX,,,,,,,,",
",,,,,,,X&>&&&&&X;:::;;:::;;;::;;;::;;;:::;;:::;X&&&&&>&X,,,,,,,,",
",,,,,,,X@&&&&$$X*********%;********%;*********%X$$&&&&@X,,,,,,,,",
",,,,,,,X@$$$$$$X*%%%%%%%%#:*%%%%%%%#:*%%%%%%%%#X$$$$$$@X,,,,,,,,",
",,,,,,,XXXXXXXXX*%%%%%%%%#:*%%%%%%%#:*%%%%%%%%#XXXXXXXXX,,,,,,,,",
",,,,,,,X&&$X&&$X*%%%%%%%%#:*%%%%%%%#:*%%%%%%%%#X$&&X$&&X,,,,,,,,",
",,,,,,,X&$$X&$$X%#########;%########;%#########X$$&X$$&X,,,,,,,,",
",,,,,,,X$@@X$@@X****;*********%;*********%;****X@@$X@@$X,,,,,,,,",
",,,,,,,XXXXXXXXX%%%%:*%%%%%%%%#:*%%%%%%%%#:%%%%XXXXXXXXX,,,,,,,,",
",,,,,,,X&>>&&&&X%%%%:*%%%%%%%%#:*%%%%%%%%#:%%%%X&&&&>>&X,,,,,,,,",
",,,,,,,X@&&&&$$X%%%%:*%%%%%%%%#:*%%%%%%%%#:%%%%X$$&&&&@X,,,,,,,,",
",,,,,,,X@$$$$$$X####;%#########;%#########;####X$$$$$$@X,,,,,,,,",
",,,,,,,XXXXXXXXX;:::;;:::;;;::;;;::;;;:::;;:::;XXXXXXXXX,,,,,,,,",
",,,,,,,X&&$X&&$X*********%;********%;*********%X$&&X$&&X,,,,,,,,",
",,,,,,,X&$$X&$$X*%%%%%%%%#:*%%%%%%%#:*%%%%%%%%#X$$&X$$&X,,,,,,,,",
",,,,,,,X$@@X$@@X*%%%%%%%%#:*%%%%%%%#:*%%%%%%%%#X@@$X@@$X,,,,,,,,"
};
