/* XPM */
static char *result[] = {
/* columns rows colors chars-per-pixel */
"64 64 14 1 ",
"  c #170E1B",
". c #3A3850",
"X c #8C0F2B",
"o c #B01433",
"O c #CE1B3C",
"+ c #F32928",
"@ c #EE5C14",
"# c #FF9E2C",
"$ c #686D91",
"% c #FEB08A",
"& c #FFD696",
"* c #B8C3D9",
"= c SkyBlue",
"- c white",
/* pixels */
"================================================================",
"================================================================",
"=+++==+++==+==+=+==+=+==+=++++=+==+=+++=========================",
"=+==+=+==+=+==+=++=+=+==+=+====++=+=+==+========================",
"=+++==+++==+==+=+=++=++++=+++==+=++=+++=========================",
"=+==+=+=+==+==+=+==+=+==+=+====+==+=+=+=========================",
"=+++==+==+==++==+==+=+==+=++++=+==+=+==+========================",
"================================================================",
"=+==+==++===++==+===+=+++==+++==++++=+==========================",
"=++=+=+==+=+==+=++=++=+==+=+==+=+====+==========================",
"=+=++=+====++++=+=+=+=+++==+++==+++==+==========================",
"=+==+=+==+=+==+=+===+=+====+==+=+====+==========================",
"=+==+==++==+==+=+===+=+====+++==++++=++++=======================",
"================================================================",
"==++==+==+=+++===++==+++========================================",
"=+==+=+==+=+==+=+==+=+==+=======================================",
"=+====+==+=+++====+==+==+=======================================",
"=+==+=+==+=+==+=+==+=+==+===++++++==============================",
"==++===++==+++===++==+++===++++++++=============================",
"==========================++XXX++XXX============================",
"=========================+XX  -----XX===========================",
"========================+X  *-------*X==========================",
"=======================+X **---------*==========================",
"=======================+X ************==========================",
"=======================XX ***@@@@@@***==========================",
"=======================XX ..@--%%--@..==========================",
"=======================XX $*@  %%  @*$==========================",
"======================$-X $*o%%%%%%O*$==========================",
"=====================$-$-$**%%-OO-%%**$=========================",
"=====================$--$$*---*$$*---*$=========================",
"======================$$=$**--------**$=========================",
"=========================$***------***$=========================",
"========================o$$*--------*$$o========================",
"=======================o+ $$*------*$$ +o=======================",
"======================o+++ $**----**$ +++o======================",
"=====================X+++++ $**--**$ +++++X=====================",
"====================X+++X++X $****$ X++X+++X====================",
"===================X++++Xo+OX      XO+oX++++X===================",
"===================X+++X o++Oo$$$$oO++o X+++X===================",
"===================X+++X o++++****++++o X+++X===================",
"==================X++++  Xo+++*--*+++oX  ++++X==================",
"==================XO++-- XXooX*--*XooXX --++OX==================",
"===================XO----     &@@&     ----OX===================",
"===================X*--+++  . #  # .  +++--*X===================",
"===================X***X+X    @@@@    X+X***X===================",
"====================$**XX  XXo    oXX  XX**$====================",
"=====================$$   o++o****o++o   $$=====================",
"====================== XXX++oo*--*oo++XXX ======================",
"======================$$**++++----++++**$$======================",
"=====================$***------**------***$=====================",
"======================$****--**  **--****$======================",
"=======================$$*****.  .*****$$=======================",
"========================                ========================",
"======================== XXXXX == XXXXX ========================",
"======================== Xoooo == ooooX ========================",
"======================== X+++o == o+++X ========================",
"=++++=++++=+====+++=++++=  XX ==== XX  +==+==++==+++++==++==+===",
"=+====+====+=====+====+=$*****$==$*****++=+=+==+===+===+==+=+===",
"=+++==+++==+=====+===+==$*---*$==$*---*+=++=++++===+===++++=+===",
"=+====+====+=====+==+===$*****$==$*****+==+=+==+===+===+==+=+===",
"=+====++++=++++=+++=++++=     ====     +==+=+==+===+===+==+=++++",
"========================  ..  ====  ..  ========================",
"======================= ...   ====   ... =======================",
"=======================       ====       ======================="
};
