/* XPM */
static char * stone_wall_xpm[] = {
"32 32 3 1",
" 	c #000000",
".	c #7B7B7B",
"+	c #6A6565",
"                                ",
".++++++  .+++++++++  +.++ +.++++",
".++++++  .++++++++++ ..++  .++++",
".++++++ ..+++++++++  .++++ ..+++",
"+++++++ +++++++++++ ..++++ +.+++",
"+++++++  .++        .+++++  ..++",
"             .++++     ++++     ",
"+++ .+++++++ +++++++++      ++++",
"+++ +.++++++ .+++++++++++ ++++++",
".++ +++++++  ++++++++++++ .+++++",
".++  +.+++  .++++++++++++ .+++++",
"+++        .++++++     ++ .+++++",
"    ++ ++     +    + +          ",
"....++  ++.++   ++++ +.+++++++++",
"...++++  +.++++++++  .++++++++++",
".+++++++  +.+++++++ ..++++++++++",
"+++++++++ +++++++++ .+++++++++++",
"++++++++  ..+++++++ .+++++++++++",
"          .+++++       ++       ",
"+++  +.++        +++++    .+++++",
".+++  ++++++ .+++++++++ ++.+++++",
".++++ +.++++ +.++++++++   ...+++",
".++++  +.++  ++++++++++++  +..++",
"...+++ ++++ ++.++++++++      +++",
"        +.+ ..+++++++    +.+   +",
"..++  .          +    ++ +.+++  ",
".+++ +++++++++++   .++++  ..++++",
"..++  +.+++++++++  +.++++ +.++++",
".++++  ++.++++++++  .++++  ..+++",
"+.++++ ++++++++++++ ++++++ +.+++",
"++++++ .+++++++++++ +.++++  .+++",
"                                "};
