/* XPM */
static char * wood_door_xpm[] = {
"32 32 4 1",
" 	c #000000",
".	c #553716",
"+	c #4E2F0B",
"@	c #FFEA00",
"                                ",
" .+ +++ .+++ .+ ++.+ .++++ .+++ ",
" .+ ..+ .+++ .++ +.+ .++++ .+++ ",
" .+ +.. .+++ .++ +.+ ..+++ ..++ ",
" .+ ++. .+++ .++ +.+ +.++  +.++ ",
" .+ +.. .++  .++ +.+ +.++ +..++ ",
" .+ +.+ .++ +.++ +.+  .++ ..+++ ",
" .+ +++ .++ +.++ +.++ .++ .++++ ",
" .+ +++ .++ ..++  .++ .++ .++++ ",
" .+ ++ +.++ .++++ .++ .++ ..+++ ",
" .+ ++ ..+  .++++ .++ .++ +..++ ",
" .+  + .++ +.+++  .++ .++  +.++ ",
" .++ + .++ +.+++ +.++ .+++ +.++ ",
" .++ + .++ +.+++ ++++ .+++ +.++ ",
" .++ + ..+ ..+++ +++  .+++ +.++ ",
" +++ + +.+ ..+++ +++ +.+++ +    ",
" +++ + +.+  .+++ +++ +.+++ + @@ ",
" +++ +  .++ ..++ +++ ..+++ + @@ ",
" .++ ++ .++ +.++ +++  .+++ + @@ ",
" .++ ++ .++  .++ ++++ .+++ + @@ ",
" .++ ++ .++  .++ ++++ ..++ +  @ ",
" .+  ++ .++ +.++ +.++ +.++ +.   ",
" .+ +++ .++ +.++ +.++ +.++ +.++ ",
" .+ +++ +++ +.+  +.++ +.++ ++++ ",
" .+ +++ .++ ..+ ++.++ +.++  +++ ",
" .+ ..+ .++ .++ ++.+  +.+++ ..+ ",
" .+ +.+ +++ .++ ++.+ ++++++ +.+ ",
" ++ +.+ .++ .++ ++.+ .+++.+ ..+ ",
" .+ +.+ .++ .++ ++.+ ..++.+ .++ ",
" .+ +.+ .++ .++ ++.+ +.++.+ +++ ",
" .+ +++ +++ .++ ++.+  .++.+ +.+ ",
"                                "};
