/* XPM */
static char * attack4_xpm[] = {
"64 64 12 1",
" 	c None",
".	c #DBDBDB",
"+	c #000000",
"@	c #BABABA",
"#	c #9F9F9F",
"$	c #808080",
"%	c #373737",
"&	c #7C7C7C",
"*	c #FDFF00",
"=	c #595959",
"-	c #252525",
";	c #3D3D3D",
"                                                                ",
"                                                                ",
"                                                                ",
"                  ...    ..........                             ",
"              .....                                             ",
"           ....                         ...                     ",
"         ...                              ....                  ",
"       ...                                   ..                 ",
"      ..                                      ...               ",
"    ...                                         .               ",
"   ..                  ...  ............                        ",
"  ..              ......               ...      + +++           ",
"  .            ....                      ..    ++@##+           ",
" ..          ...                              ++@###+           ",
"            ..                               ++@$$##+           ",
"          ...                               ++#$$$##+           ",
"         ..                                ++@$$$##+            ",
"                                          ++@$$%##+             ",
"                                         ++@$$%##+              ",
"                       ..........       ++@$$%##+               ",
"                    ....        ..     ++#$$%##+                ",
"                  ...                 ++@$$$##+                 ",
"                  .                  ++@$$%##+                  ",
"                                    ++@$$$##+                   ",
"                                   ++#$$$##+                    ",
"                                  ++#$$$##+                     ",
"                                 ++#$$$##+                      ",
"                                ++@$$%##+                       ",
"                               ++#$$%##+                        ",
"                              ++@$$%##+                         ",
"                             ++#$$$##+                          ",
"             +&+            ++@$$$##+                           ",
"            +*&&           ++@$$%##+                            ",
"            +&=++         ++#$$%##+                             ",
"            +++=++       ++#$$$##+                              ",
"               +=++     ++@$$$##+                               ",
"                +=++   ++#$$$##+                                ",
"                 +=++ ++#$$$##+                                 ",
"                  +=+++#%$$##+                                  ",
"                   +=+++%%##+                                   ",
"                   ++===+##+                                    ",
"                   +++==+%+                                     ",
"                   -+++=++                                      ",
"                  ++-+++=++                                     ",
"                 +-++++++=++                                    ",
"                +-+-++   +=++                                   ",
"               ++--++     +=++                                  ",
"              +==+++       +=++                                 ",
"             +===++         +=+;+                               ",
"            +===++           +=;;                               ",
"        +&++==;++            +=*++                              ",
"        &&&==;++             ++++                               ",
"        +&**=++                                                 ",
"         &=*=;                                                  ",
"        ++===;                                                  ",
"         + +;+                                                  ",
"                                                                ",
"                                                                ",
"                                                                ",
"                                                                ",
"                                                                ",
"                                                                ",
"                                                                ",
"                                                                "};
