/* XPM */
static char * attackss2_xpm[] = {
"192 64 12 1",
" 	c None",
".	c #000000",
"+	c #9F9F9F",
"@	c #DBDBDB",
"#	c #BABABA",
"$	c #808080",
"%	c #373737",
"&	c #FDFF00",
"*	c #7C7C7C",
"=	c #595959",
"-	c #3D3D3D",
";	c #252525",
"                                                                                                                                                                                                ",
"                                                                                                                                                                                                ",
"                              ..                                                                                                                                                                ",
"                             .++.                                                          @@@@@@@    ..                                                                                        ",
"                             .++.                                                    @@   @@         .++                                                                                        ",
"                            .#+++.                                                @@@@             ..++.                                                            @@@@@                       ",
"                            .#$%+.                                              @@@       @@@@@@@  .#+++                                                  @@@@@@@@@@@   @   ...                 ",
"                            .#$$+.                                            @@@      @@@@     @@ .#$%+.                                             @@@@@                ..+.                 ",
"                            .#$$+.                                           @@      @@@          ..#$$+.                                         @@@@@                   .#++..                ",
"                            .+$$+.                                          @@     @@@            .+$$+.                                       @@@@                      .#$++.                 ",
"                            .#$%+.                                          @    @@@              .+$$+.                                     @@@               @@@@@@    .#$%+..                ",
"                            .#$%+.                                             @@@                .#$%+.                                   @@@            @@@@@@        .#$$$+.                 ",
"                            .#$%+.                                            @@                 .#$$%+.                                 @@@           @@@@            ..+$$+.                  ",
"                            .#$%+.                                           @@                  .#$%+.                                 @@          @@@@               .#$%++.                  ",
"                            .#$%+.                                                               .#$%+.                                 @        @@@@                 .##$%+.                   ",
"                            .+$$+.                                                               .+$%+.                                @@     @@@@                    .#$%+..                   ",
"                            .+$$+.                                                              .+$$++.                                @    @@@                      .#$$%+.                    ",
"                            .#$%+.                                                              .#$$+.                                    @@@                        .+$%+.                     ",
"                            .#$$+.                                                              .#$%+.                                  @@@                         .+$$$+.                     ",
"                            .#$$+.                                                              .#$$+.                                 @@                          ..#$$+.                      ",
"                            .#$%+.                                                             .#$$+.                                 @@                           .#$$++.                      ",
"                            .#$$+.                                                             .#$%+.                                                             .##$$+.                       ",
"                            .+$$+.                                                             .+$$+.                                                             .#$%+..                       ",
"                            .+$$+.                                                            .++$$+.                                                            .+$$$+.                        ",
"                            .+$%+.                                                            .+$%+.                                                             .+$$+.                         ",
"                            .+$%+.                                                            .+$%+.                                                            .+$%$+.                         ",
"                            .#$%+.                                                            .#$%+.                                                           ..+$%+.                          ",
"                            .+$%+.                                                           .+$%%+.                                                           .+$%++.                          ",
"                            .#$$+.                                                           .#$$+.                                                           .##$%+.                           ",
"                            .#$$+.                                                           .#$$+.                                                           .#$$+..                           ",
"                            .+$$+.                                                           .+$$+.                                                          .+$$$+.                            ",
"                            .#$%+.                                                          .#$%+..                                                         ..#$$+.                             ",
"                            .#$%+.                                                          .#$%+.                                                          .#$%%+.                             ",
"                            .#$%+.                                                          .#$%+.                                                         .+#$%+.                              ",
"                            .+$$+.                                                          .+$$+.                                                         .+$$++.                              ",
"                            .+$$+.                                                         .+$$+.                                            ....         .+$$$+.                               ",
"                            .+$$+.                                                         .+$$+.                                            .&*.         .#$$+..                               ",
"                            .#$%+.                                                         .#$%+.                                           .*&=..       .#$%%+.                                ",
"                            .#$$+.                                                        .+#$$+.                                            .=.==..    ..+$$+.                                 ",
"                            .+$$+.                                             ...        .+$$+.                                              . ..==..  .+$$++.                                 ",
"                            .+$$+.                                             .**..      .+$$+.                                                 ..==...%+%$+.                                  ",
"                            .+%%+.                                            .*====....  .+%%+.                                                   ..==....+..                                  ",
"                  ..        .%..%.        ..                                   .=...===.......%.                                                     ..====%.                                   ",
"                 .**..........==..........--.                                   .  ....======..                                                       ...==..                                   ",
"                 .&========================&.                                          ....====....                                                   ....==..                                  ",
"                 .*=......................=-.                                            ......====......                                             ;;....==..                                ",
"                  ..        ......        ..                                             ;;........===.--.                                           ...... ..==..                              ",
"                             ;;;.                                                        ..;.     ....==&.                                          ..;;.     ..==.-..                          ",
"                             ....                                                        .;..         =-.                                           ....       ..==--                           ",
"                             .;;.                                                        .;;.         ..                                           ..;;.         .=&&.                          ",
"                             ....                                                       .;..                                                       .=..           .-.                           ",
"                             .;;.                                                       ..;.                                                      .===.                                         ",
"                             ....                                                       .=..                                                      .==.                                          ",
"                             .==.                                                      .===.                                                     .=-..                                          ",
"                             .==.                                                      .==.                                                    ...=-.                                           ",
"                             .==.                                                      .=-.                                                  ...*=-.                                            ",
"                             .=-.                                                      .=-.                                                  .**&==.                                            ",
"                             .=-.                                                     .=-..                                                  ..*=&=.                                            ",
"                             .=-.                                                   ..*==.                                                     *===-.                                           ",
"                            .*==-.                                                  .**&&-.                                                    .=.-.                                            ",
"                           .**&&=-.                                                  **===-.                                                      .                                             ",
"                           .**===-.                                                  .*=.-..                                                                                                    ",
"                            ..*=..                                                    .. .                                                                                                      ",
"                              ..                                                                                                                                                                "};
