/* XPM */
static char * attack2_xpm[] = {
"64 64 12 1",
" 	c None",
".	c #DBDBDB",
"+	c #000000",
"@	c #9F9F9F",
"#	c #BABABA",
"$	c #808080",
"%	c #373737",
"&	c #7C7C7C",
"*	c #595959",
"=	c #252525",
"-	c #3D3D3D",
";	c #FDFF00",
"                                                                ",
"                                                                ",
"                                                                ",
"                           .......    ++                        ",
"                     ..   ..         +@@                        ",
"                  ....             ++@@+                        ",
"                ...       .......  +#@@@                        ",
"              ...      ....     .. +#$%@+                       ",
"             ..      ...          ++#$$@+                       ",
"            ..     ...            +@$$@+                        ",
"            .    ...              +@$$@+                        ",
"               ...                +#$%@+                        ",
"              ..                 +#$$%@+                        ",
"             ..                  +#$%@+                         ",
"                                 +#$%@+                         ",
"                                 +@$%@+                         ",
"                                +@$$@@+                         ",
"                                +#$$@+                          ",
"                                +#$%@+                          ",
"                                +#$$@+                          ",
"                               +#$$@+                           ",
"                               +#$%@+                           ",
"                               +@$$@+                           ",
"                              +@@$$@+                           ",
"                              +@$%@+                            ",
"                              +@$%@+                            ",
"                              +#$%@+                            ",
"                             +@$%%@+                            ",
"                             +#$$@+                             ",
"                             +#$$@+                             ",
"                             +@$$@+                             ",
"                            +#$%@++                             ",
"                            +#$%@+                              ",
"                            +#$%@+                              ",
"                            +@$$@+                              ",
"                           +@$$@+                               ",
"                           +@$$@+                               ",
"                           +#$%@+                               ",
"                          +@#$$@+                               ",
"               +++        +@$$@+                                ",
"               +&&++      +@$$@+                                ",
"              +&****++++  +@%%@+                                ",
"               +*+++***+++++++%+                                ",
"                +  ++++******++                                 ",
"                       ++++****++++                             ",
"                         ++++++****++++++                       ",
"                         ==++++++++***+--+                      ",
"                         ++=+     ++++**;+                      ",
"                         +=++         *-+                       ",
"                         +==+         ++                        ",
"                        +=++                                    ",
"                        ++=+                                    ",
"                        +*++                                    ",
"                       +***+                                    ",
"                       +**+                                     ",
"                       +*-+                                     ",
"                       +*-+                                     ",
"                      +*-++                                     ",
"                    ++&**+                                      ",
"                    +&&;;-+                                     ",
"                     &&***-+                                    ",
"                     +&*+-++                                    ",
"                      ++ +                                      ",
"                                                                "};
