/* XPM */
static char * attack6_xpm[] = {
"64 64 11 1",
" 	c None",
".	c #000000",
"+	c #9F9F9F",
"@	c #BABABA",
"#	c #808080",
"$	c #373737",
"%	c #7C7C7C",
"&	c #595959",
"*	c #252525",
"=	c #3D3D3D",
"-	c #FDFF00",
"                                                                ",
"                                                                ",
"                                                                ",
"                                      ..                        ",
"                                     .++                        ",
"                                   ..++.                        ",
"                                   .@+++                        ",
"                                   .@#$+.                       ",
"                                  ..@##+.                       ",
"                                  .+##+.                        ",
"                                  .+##+.                        ",
"                                  .@#$+.                        ",
"                                 .@##$+.                        ",
"                                 .@#$+.                         ",
"                                 .@#$+.                         ",
"                                 .+#$+.                         ",
"                                .+##++.                         ",
"                                .@##+.                          ",
"                                .@#$+.                          ",
"                                .@##+.                          ",
"                               .@##+.                           ",
"                               .@#$+.                           ",
"                               .+##+.                           ",
"                              .++##+.                           ",
"                              .+#$+.                            ",
"                              .+#$+.                            ",
"                              .@#$+.                            ",
"                             .+#$$+.                            ",
"                             .@##+.                             ",
"                             .@##+.                             ",
"                             .+##+.                             ",
"                            .@#$+..                             ",
"                            .@#$+.                              ",
"                            .@#$+.                              ",
"                            .+##+.                              ",
"                           .+##+.                               ",
"                           .+##+.                               ",
"                           .@#$+.                               ",
"                          .+@##+.                               ",
"               ...        .+##+.                                ",
"               .%%..      .+##+.                                ",
"              .%&&&&....  .+$$+.                                ",
"               .&...&&&.......$.                                ",
"                .  ....&&&&&&..                                 ",
"                       ....&&&&....                             ",
"                         ......&&&&......                       ",
"                         **........&&&.==.                      ",
"                         ..*.     ....&&-.                      ",
"                         .*..         &=.                       ",
"                         .**.         ..                        ",
"                        .*..                                    ",
"                        ..*.                                    ",
"                        .&..                                    ",
"                       .&&&.                                    ",
"                       .&&.                                     ",
"                       .&=.                                     ",
"                       .&=.                                     ",
"                      .&=..                                     ",
"                    ..%&&.                                      ",
"                    .%%--=.                                     ",
"                     %%&&&=.                                    ",
"                     .%&.=..                                    ",
"                      .. .                                      ",
"                                                                "};
